<?xml version="1.0" encoding="utf-8"?>
<!-- Generator: Adobe Illustrator 21.0.0, SVG Export Plug-In . SVG Version: 6.00 Build 0)  -->
<svg version="1.1" id="Layer_1" xmlns="http://www.w3.org/2000/svg" xmlns:xlink="http://www.w3.org/1999/xlink" x="0px" y="0px"
	 width="1400px" height="980px" viewBox="0 0 1400 980" style="enable-background:new 0 0 1400 980;" xml:space="preserve">
<style type="text/css">
	.st0{fill:#F8E4D2;}
	.st1{fill:#40B1E5;}
	.st2{fill:#593939;}
	.st3{fill:#F4EEE7;}
	.st4{fill:#F9B0A1;}
	.st5{fill:#F26C57;}
	.st6{fill:#FDDBD1;}
	.st7{fill:#FFD67B;}
	.st8{fill:#C29173;}
	.st9{fill:#A76846;}
	.st10{fill:#F4817E;}
	.st11{fill:#F8B2B2;}
	.st12{fill:#F05661;}
	.st13{fill:#EDE9CD;}
	.st14{fill:#D1CBAC;}
	.st15{fill:#F1FAFE;}
	.st16{fill:#F0C8A2;}
	.st17{fill:#E6C095;}
	.st18{fill:#CE8C3F;}
	.st19{fill:#FFE5C7;}
	.st20{fill:#CDDADD;}
	.st21{fill:#9CDCF5;}
</style>
<rect class="st0" width="1400" height="980"/>
<g>
	<path class="st1" d="M268.54056,285.56488H247.1107c-35.12877,0-63.60625,28.47748-63.60625,63.60623v12.13943
		c0,35.12906,28.47748,63.60654,63.60625,63.60654h21.42986c35.12878,0,63.60626-28.47748,63.60626-63.60654v-12.13943
		C332.14682,314.04236,303.66934,285.56488,268.54056,285.56488z"/>
	<path class="st2" d="M268.54037,428.40369H247.1109c-36.99521,0-67.09178-30.0983-67.09178-67.09348v-12.1394
		c0-36.99521,30.09657-67.0918,67.09178-67.0918h21.42947c36.99518,0,67.09177,30.09659,67.09177,67.0918v12.1394
		C335.63214,398.30539,305.53555,428.40369,268.54037,428.40369z M247.1109,289.05084
		c-33.15015,0-60.11996,26.96982-60.11996,60.11996v12.1394c0,33.15182,26.96982,60.12164,60.11996,60.12164h21.42947
		c33.15015,0,60.11996-26.96982,60.11996-60.12164v-12.1394c0-33.15015-26.96982-60.11996-60.11996-60.11996H247.1109z"/>
	<g>
		<g>
			<path class="st3" d="M326.37424,239.01413c-22.11993,1.17714-42.49255,15.20018-50.66241,37.29712
				c-8.16983,22.09695-1.81958,46.00018,14.21432,61.28384c22.11993-1.17715,42.49219-15.20032,50.66205-37.29727
				C348.75803,278.20087,342.40814,254.29779,326.37424,239.01413z"/>
			<path class="st4" d="M295.83325,321.6189c-8.61551-11.34726-11.00256-26.42902-5.95749-40.07114
				c5.04321-13.64215,16.66696-23.54242,30.59113-26.55618c8.61551,11.34726,11.00073,26.42899,5.95749,40.06927
				C321.38116,308.70483,309.75925,318.60696,295.83325,321.6189z"/>
			<path class="st2" d="M289.9256,341.08072c-0.89362,0-1.75488-0.34384-2.40509-0.96341
				c-17.5708-16.74698-23.48901-42.2666-15.07892-65.0152c8.4101-22.7469,29.50766-38.27859,53.74728-39.56879
				c0.98041-0.04425,1.89615,0.29617,2.59061,0.95828c17.5708,16.74699,23.48901,42.26831,15.07892,65.01523
				c-8.41177,22.7486-29.50763,38.28027-53.74728,39.56876C290.04813,341.07901,289.98685,341.08072,289.9256,341.08072z
				 M325.05017,242.59705c-20.82181,1.6902-38.79944,15.26105-46.06909,34.92206
				c-7.26968,19.66269-2.44424,41.66574,12.26874,56.49277c20.82184-1.68848,38.79944-15.25934,46.06912-34.92203
				S339.76486,257.42578,325.05017,242.59705z"/>
		</g>
		<g>
			<path class="st3" d="M189.27704,239.01413c22.11993,1.17714,42.49254,15.20018,50.6624,37.29712
				c8.16985,22.09695,1.8196,46.00018-14.21432,61.28384c-22.11993-1.17715-42.49219-15.20032-50.66203-37.29727
				S173.24312,254.29779,189.27704,239.01413z"/>
			<path class="st4" d="M219.81801,321.6189c8.61551-11.34726,11.00256-26.42902,5.95749-40.07114
				c-5.04323-13.64215-16.66696-23.54242-30.59113-26.55618c-8.61551,11.34726-11.00072,26.42899-5.95749,40.06927
				C194.27011,308.70483,205.892,318.60696,219.81801,321.6189z"/>
			<path class="st2" d="M225.72568,341.08072c-0.06128,0-0.12254-0.00171-0.18553-0.00513
				c-24.23964-1.28848-45.33549-16.82016-53.74728-39.56876c-8.4101-22.74692-2.49188-48.26823,15.07892-65.01523
				c0.69446-0.66211,1.62721-1.00253,2.59061-0.95828c24.23964,1.29019,45.3372,16.82188,53.74728,39.56879
				c8.4101,22.7486,2.49188,48.26822-15.07892,65.0152C227.48055,340.73688,226.61928,341.08072,225.72568,341.08072z
				 M190.60109,242.59705c-14.71468,14.82874-19.53844,36.83011-12.26875,56.4928s25.24728,33.23355,46.06911,34.92203
				c14.71298-14.82703,19.53844-36.83008,12.26875-56.49277C229.40051,257.85809,211.42291,244.28725,190.60109,242.59705z"/>
		</g>
	</g>
	<path class="st3" d="M269.48468,256.77527h-23.3181c-38.22408,0-69.21077,30.98669-69.21077,69.21075v13.20908
		c0,38.22437,30.98669,69.21109,69.21077,69.21109h23.3181c38.22406,0,69.21078-30.98672,69.21078-69.21109v-13.20908
		C338.69547,287.76196,307.70874,256.77527,269.48468,256.77527z"/>
	<path class="st2" d="M269.48505,411.89157h-23.31882c-40.08452,0-72.69679-32.61227-72.69679-72.69681v-13.20831
		c0-40.0845,32.61227-72.69679,72.69679-72.69679h23.31882c40.0845,0,72.69678,32.61229,72.69678,72.69679v13.20831
		C342.18182,379.2793,309.56955,411.89157,269.48505,411.89157z M246.16623,260.26147
		c-36.24117,0-65.72499,29.48383-65.72499,65.72498v13.20831c0,36.24118,29.48383,65.72501,65.72499,65.72501h23.31882
		c36.24115,0,65.72498-29.48383,65.72498-65.72501v-13.20831c0-36.24115-29.48383-65.72498-65.72498-65.72498H246.16623z"/>
	<g>
		<path class="st2" d="M270.08078,379.48355c-8.67902,0-15.74106-7.06204-15.74106-15.74106v-8.5173
			c0-1.92508,1.56084-3.4859,3.4859-3.4859c1.92508,0,3.48593,1.56082,3.48593,3.4859v8.5173
			c0,4.83569,3.93353,8.76923,8.76923,8.76923c4.83566,0,8.76923-3.93353,8.76923-8.76923c0-1.92508,1.56082-3.4859,3.4859-3.4859
			s3.4859,1.56082,3.4859,3.4859C285.82181,372.42151,278.7598,379.48355,270.08078,379.48355z"/>
		<path class="st2" d="M245.5705,379.48355c-8.67902,0-15.74104-7.06204-15.74104-15.74106c0-1.92508,1.56082-3.4859,3.4859-3.4859
			s3.48592,1.56082,3.48592,3.4859c0,4.83569,3.93355,8.76923,8.76923,8.76923s8.76923-3.93353,8.76923-8.76923v-8.5173
			c0-1.92508,1.56084-3.4859,3.4859-3.4859c1.92508,0,3.48593,1.56082,3.48593,3.4859v8.5173
			C261.31155,372.42151,254.24951,379.48355,245.5705,379.48355z"/>
	</g>
	<g>
		<path class="st5" d="M257.82562,338.95441c-8.67162,0-15.70129,1.09943-15.70129,7.50638s7.02968,11.60077,15.70129,11.60077
			c8.67163,0,15.70132-5.19382,15.70132-11.60077S266.49725,338.95441,257.82562,338.95441z"/>
		<path class="st2" d="M257.82562,361.54678c-10.58026,0-19.18779-6.76755-19.18779-15.08572
			c0-10.99219,13.44661-10.99219,19.18779-10.99219c5.74121,0,19.18781,0,19.18781,10.99219
			C277.01343,354.77924,268.40591,361.54678,257.82562,361.54678z M257.82562,342.44067
			c-12.21597,0-12.21597,2.61615-12.21597,4.02039c0,4.39822,5.5948,8.11392,12.21597,8.11392
			c6.62119,0,12.216-3.7157,12.216-8.11392C270.04163,345.05682,270.04163,342.44067,257.82562,342.44067z"/>
	</g>
	<g>
		<g>
			<circle class="st2" cx="296.73816" cy="317.40378" r="11.41189"/>
			<path class="st2" d="M315.995,302.10086c-0.60767,0-1.22382-0.15829-1.78381-0.49362
				c-10.47473-6.25351-20.4899-6.26373-30.62424-0.02383c-1.64252,1.00766-3.78717,0.49533-4.7948-1.14209
				c-1.00937-1.63913-0.49872-3.78549,1.14209-4.79483c12.3811-7.6203,25.11963-7.63052,37.85138-0.02383
				c1.65274,0.98721,2.19229,3.12677,1.20508,4.77951C318.33878,301.4949,317.18137,302.10086,315.995,302.10086z"/>
		</g>
		<g>
			<circle class="st2" cx="218.91312" cy="317.40378" r="11.41189"/>
			<path class="st2" d="M199.65628,302.10086c-1.18637,0-2.3438-0.60596-2.9957-1.6987
				c-0.98723-1.65274-0.44766-3.7923,1.20508-4.77951c12.73174-7.60669,25.46686-7.59988,37.85136,0.02383
				c1.64082,1.00934,2.15146,3.1557,1.14211,4.79483c-1.01105,1.63742-3.1608,2.14975-4.79482,1.14209
				c-10.13943-6.2399-20.1546-6.22968-30.62424,0.02383C200.8801,301.94257,200.26393,302.10086,199.65628,302.10086z"/>
		</g>
	</g>
	<g>
		<path class="st6" d="M315.70715,332.08734h-10.8483c-3.04184,0-5.50775,2.46588-5.50775,5.50775
			c0,3.04184,2.46591,5.50772,5.50775,5.50772h10.8483c3.04187,0,5.50775-2.46588,5.50775-5.50772
			C321.2149,334.55322,318.74902,332.08734,315.70715,332.08734z"/>
		<path class="st6" d="M210.7924,332.08734h-10.8483c-3.04185,0-5.50775,2.46588-5.50775,5.50775
			c0,3.04184,2.4659,5.50772,5.50775,5.50772h10.8483c3.04185,0,5.50775-2.46588,5.50775-5.50772
			C216.30016,334.55322,213.83426,332.08734,210.7924,332.08734z"/>
	</g>
	<g>
		<g>
			<path class="st2" d="M353.4072,344.75214c-0.52423,0-1.05701-0.11743-1.5574-0.36935
				c-13.00748-6.51224-27.45493-8.01178-42.93045-4.4527c-1.87741,0.43573-3.74463-0.73871-4.17865-2.61612
				c-0.43063-1.87744,0.74042-3.74805,2.61612-4.17868c17.10443-3.92844,33.12292-2.24338,47.61462,5.0144
				c1.72083,0.86127,2.4187,2.95483,1.55573,4.67737C355.91611,344.04749,354.68549,344.75214,353.4072,344.75214z"/>
			<path class="st2" d="M344.70776,372.35855c-0.74551,0-1.49615-0.2366-2.13104-0.72852
				c-10.47302-8.0986-23.0022-13.58957-37.23691-16.32315c-1.89102-0.36255-3.13016-2.1889-2.7659-4.07996
				c0.36426-1.88931,2.19913-3.11823,4.07993-2.7659c15.31894,2.94122,28.84042,8.87985,40.18835,17.65421
				c1.52338,1.17786,1.80252,3.36676,0.62466,4.89014C346.78091,371.89386,345.74945,372.35855,344.70776,372.35855z"/>
			<path class="st2" d="M323.24084,394.53693c-1.00766,0-2.0051-0.43402-2.69443-1.27316
				c-8.14456-9.91135-16.38785-18.23462-24.49838-24.74005c-1.50293-1.20511-1.74295-3.39911-0.53955-4.90036
				c1.2085-1.50467,3.4025-1.74124,4.90036-0.53955c8.48666,6.8067,17.07379,15.47211,25.52301,25.75449
				c1.22211,1.48764,1.00766,3.68335-0.47998,4.90549C324.80338,394.27652,324.02042,394.53693,323.24084,394.53693z"/>
		</g>
		<g>
			<path class="st2" d="M162.24406,344.75214c-1.27827,0.00171-2.5089-0.70465-3.11995-1.92508
				c-0.86298-1.72253-0.16512-3.8161,1.55571-4.67737c14.49512-7.25946,30.5119-8.94797,47.61462-5.0144
				c1.87572,0.43063,3.04677,2.30124,2.61613,4.17868c-0.43063,1.87741-2.29784,3.05017-4.17867,2.61612
				c-15.48233-3.55908-29.92467-2.05954-42.93044,4.4527C163.30107,344.6347,162.76831,344.75214,162.24406,344.75214z"/>
			<path class="st2" d="M170.94351,372.35855c-1.04169,0-2.07317-0.46469-2.75911-1.35318
				c-1.17786-1.52338-0.89871-3.71228,0.62466-4.89014c11.34793-8.77435,24.86943-14.71298,40.18835-17.65421
				c1.89613-0.35233,3.71909,0.87488,4.07994,2.7659c0.36424,1.89105-0.87489,3.71741-2.76591,4.07996
				c-14.2347,2.73358-26.76387,8.22455-37.23691,16.32315C172.43965,372.12024,171.68903,372.35855,170.94351,372.35855z"/>
			<path class="st2" d="M192.41043,394.53693c-0.77957,0-1.56253-0.2587-2.21103-0.79315
				c-1.48764-1.22214-1.7021-3.41785-0.48-4.90549c8.44923-10.28238,17.03635-18.94778,25.52303-25.75449
				c1.50125-1.20682,3.69186-0.9668,4.90036,0.53955c1.20338,1.50125,0.96338,3.69525-0.53958,4.90036
				c-8.1105,6.50543-16.35379,14.8287-24.49835,24.74005C194.4155,394.10291,193.41637,394.53693,192.41043,394.53693z"/>
		</g>
	</g>
	<circle class="st7" cx="257.82562" cy="432.46716" r="15.70132"/>
	<path class="st2" d="M257.82562,451.65439c-10.58026,0-19.18779-8.60751-19.18779-19.18781
		c0-10.57855,8.60753-19.1861,19.18779-19.1861c10.58029,0,19.18781,8.60754,19.18781,19.1861
		C277.01343,443.04688,268.40591,451.65439,257.82562,451.65439z M257.82562,420.25232
		c-6.73521,0-12.21597,5.47906-12.21597,12.21426c0,6.73523,5.48076,12.216,12.21597,12.216c6.73523,0,12.216-5.48077,12.216-12.216
		C270.04163,425.73138,264.56085,420.25232,257.82562,420.25232z"/>
	<path class="st2" d="M257.82562,451.65439c-1.92506,0-3.4859-1.56082-3.4859-3.4859V435.224
		c0-1.92508,1.56084-3.4859,3.4859-3.4859c1.92508,0,3.48593,1.56082,3.48593,3.4859v12.94449
		C261.31155,450.09357,259.7507,451.65439,257.82562,451.65439z"/>
</g>
<g>
	<path class="st8" d="M610.61279,308.50473c0.64471-1.93069,1.07666-3.95966,1.07666-6.10712
		c0-10.70865-8.68091-19.38959-19.38959-19.38959c-2.3902,0-4.65332,0.49057-6.76758,1.28165
		c0.02881-0.43167,0.12927-0.84253,0.12927-1.28165c0-10.70865-8.68091-19.38959-19.38959-19.38959
		c-6.43951,0-12.10345,3.1745-15.62994,8.00613c-3.52643-4.83163-9.19104-8.00613-15.63055-8.00613
		c-10.70868,0-19.38959,8.68094-19.38959,19.38959c0,0.43912,0.10046,0.84998,0.12933,1.28165
		c-2.11426-0.79108-4.37738-1.28165-6.76764-1.28165c-10.70865,0-19.38959,8.68094-19.38959,19.38959
		c0,2.14746,0.43198,4.17642,1.07666,6.10712c-8.00488,2.3862-13.87881,9.71759-13.87881,18.49805
		c0,10.70834,8.68094,19.38959,19.38928,19.38959h108.92093c10.70868,0,19.38959-8.68124,19.38959-19.38959
		C624.49164,318.22232,618.61774,310.89093,610.61279,308.50473z"/>
	<path class="st9" d="M610.61279,308.50473c0.64471-1.93069,1.07666-3.95966,1.07666-6.10712
		c0-10.70865-8.68091-19.38959-19.38959-19.38959c-2.3902,0-4.65332,0.49057-6.76758,1.28165
		c0.02881-0.43167,0.12927-0.84253,0.12927-1.28165c0-10.70865-8.68091-19.38959-19.38959-19.38959
		c-2.52203,0-4.91754,0.50082-7.11987,1.38336c7.19,2.83646,12.29456,9.80844,12.29456,18.00623
		c0,0.43912-0.10052,0.84998-0.12933,1.28165c2.11426-0.79108,4.37738-1.28165,6.76758-1.28165
		c10.70868,0,19.38959,8.68094,19.38959,19.38959c0,2.14746-0.43195,4.17642-1.07666,6.10712
		c8.00494,2.3862,13.87885,9.71759,13.87885,18.49805c0,10.70834-8.68091,19.38959-19.38959,19.38959h14.21497
		c10.70868,0,19.38959-8.68124,19.38959-19.38959C624.49164,318.22232,618.61774,310.89093,610.61279,308.50473z"/>
	<path class="st2" d="M605.10223,349.87888H496.18127c-12.61258,0-22.87457-10.26196-22.87457-22.87625
		c0-9.00412,5.18292-16.93082,13.19299-20.63971c-0.26212-1.34976-0.39148-2.66379-0.39148-3.96588
		c0-12.61258,10.26199-22.87457,22.87457-22.87457c1.11829,0,2.24677,0.09021,3.37866,0.27234
		c1.56763-11.09772,11.12836-19.66269,22.6499-19.66269c5.81946,0,11.41766,2.28082,15.63037,6.24673
		c4.21271-3.96591,9.81091-6.24673,15.63043-6.24673c11.52155,0,21.08221,8.56497,22.64984,19.66269
		c1.13196-0.18213,2.26044-0.27234,3.37872-0.27234c12.61255,0,22.87451,10.26199,22.87451,22.87457
		c0,1.30209-0.12933,2.61612-0.39148,3.96588c8.01013,3.70889,13.19299,11.63559,13.19299,20.63971
		C627.97675,339.61691,617.71478,349.87888,605.10223,349.87888z M508.98279,286.49429
		c-8.76923,0-15.90274,7.13348-15.90274,15.90274c0,1.5574,0.29276,3.19482,0.897,5.00418
		c0.29785,0.89529,0.22125,1.87399-0.21448,2.71143s-1.19147,1.46213-2.09698,1.73276
		c-6.81012,2.03061-11.38705,8.12244-11.38705,15.15723c0,8.76923,7.13351,15.90445,15.90274,15.90445h108.92096
		c8.76923,0,15.90271-7.13522,15.90271-15.90445c0-7.03479-4.57697-13.12662-11.38702-15.15723
		c-0.90552-0.27063-1.66125-0.89532-2.09705-1.73276c-0.43573-0.83743-0.51233-1.81613-0.21442-2.71143
		c0.60425-1.80936,0.89697-3.44678,0.89697-5.00418c0-10.5939-10.37769-18.98187-21.44989-14.84235
		c-1.10803,0.4119-2.35229,0.23999-3.30377-0.46808c-0.94977-0.70636-1.47571-1.84848-1.39575-3.02975
		c0.01703-0.26212,0.04938-0.52084,0.08514-0.77786c0.03571-9.03986-7.09778-16.17508-15.867-16.17508
		c-5.09442,0-9.76495,2.39658-12.81512,6.57523c-1.31061,1.80084-4.31995,1.80084-5.63055,0
		c-3.05017-4.17865-7.72076-6.57523-12.81512-6.57523c-8.76923,0-15.90277,7.13522-15.90277,15.90445
		c0.07147,0.52765,0.10382,0.78638,0.12085,1.04849c0.08002,1.18127-0.44592,2.32339-1.39569,3.02975
		c-0.95319,0.70978-2.19232,0.88168-3.30383,0.46808C512.6236,286.84152,510.80743,286.49429,508.98279,286.49429z"/>
	<path class="st2" d="M624.49255,330.48853c-1.92505,0-3.4859-1.56082-3.4859-3.4859c0-8.76923-7.13519-15.90274-15.90442-15.90274
		c-3.11316,0-6.12927,0.89871-8.7182,2.59909c-1.60339,1.05362-3.76843,0.61105-4.82715-1.00082
		c-1.05701-1.60849-0.60938-3.77017,1.00085-4.82718c3.72931-2.44931,8.06622-3.74292,12.54449-3.74292
		c12.61426,0,22.87622,10.26199,22.87622,22.87457C627.97845,328.9277,626.41766,330.48853,624.49255,330.48853z"/>
	<path class="st2" d="M547.07416,283.80154c-0.16003,0-0.32172-0.01019-0.48511-0.03232
		c-1.90637-0.26553-3.23743-2.02551-2.97357-3.93356c1.56079-11.23218,11.30194-19.70355,22.65668-19.70355
		c1.92505,0,3.4859,1.56082,3.4859,3.4859s-1.56085,3.4859-3.4859,3.4859c-7.89435,0-14.66534,5.88589-15.74957,13.69171
		C550.27917,282.54028,548.78644,283.80154,547.07416,283.80154z"/>
	<path class="st2" d="M528.37311,305.88293c-1.92505,0-3.4859-1.56082-3.4859-3.4859c0-8.76926-7.13519-15.90274-15.90442-15.90274
		s-15.90274,7.13348-15.90274,15.90274c0,1.92508-1.56085,3.4859-3.48593,3.4859s-3.4859-1.56082-3.4859-3.4859
		c0-12.61258,10.26199-22.87457,22.87457-22.87457c12.61426,0,22.87622,10.26199,22.87622,22.87457
		C531.85901,304.32211,530.29822,305.88293,528.37311,305.88293z"/>
	<path class="st2" d="M571.30524,321.42822c-1.35828,0-2.64844-0.79828-3.21185-2.12762
		c-2.1106-4.98206-6.9718-8.20071-12.38446-8.20071c-4.27228,0-8.33179,2.06293-10.85944,5.51651
		c-1.13531,1.55573-3.31909,1.89273-4.8714,0.75574c-1.55402-1.13702-1.89276-3.31741-0.75574-4.87143
		c3.83484-5.24246,9.99811-8.37265,16.48657-8.37265c8.21771,0,15.59973,4.88846,18.80481,12.45261
		c0.75061,1.77188-0.07831,3.81781-1.85022,4.57013C572.2193,321.33801,571.758,321.42822,571.30524,321.42822z"/>
	<polygon class="st10" points="455.69672,391.38638 472.12952,337.67023 629.15399,337.67023 645.58679,391.38638 	"/>
	<path class="st11" d="M473.81903,375.27084c-0.32169,0-0.65018-0.04596-0.97528-0.13959
		c-1.84848-0.53784-2.91061-2.47314-2.37445-4.32162l9.93857-34.18845c0.53958-1.84677,2.46808-2.914,4.32166-2.37442
		c1.84848,0.53787,2.91058,2.47314,2.37442,4.32162l-9.93857,34.18845C476.72113,374.28021,475.33051,375.27084,473.81903,375.27084
		z"/>
	<polygon class="st12" points="629.15387,337.6702 603.86407,337.6702 615.00354,391.38626 645.58667,391.38626 	"/>
	<path class="st2" d="M645.58673,394.87225H455.69675c-1.10464,0-2.14465-0.52426-2.80164-1.41275
		c-0.65872-0.88849-0.85446-2.03571-0.53107-3.09271l16.4321-53.71664c0.44766-1.46552,1.80081-2.46637,3.3327-2.46637H629.1546
		c1.53192,0,2.88507,1.00085,3.33276,2.46637l16.43207,53.71664c0.32343,1.05701,0.12769,2.20422-0.53107,3.09271
		C647.73138,394.34799,646.69141,394.87225,645.58673,394.87225z M460.40817,387.90045h180.46713l-14.29938-46.74484H474.70755
		L460.40817,387.90045z"/>
	<rect x="446.06454" y="391.38638" class="st10" width="209.15436" height="32.17778"/>
	<rect x="625.5816" y="391.38638" class="st12" width="29.63729" height="32.17778"/>
	<path class="st2" d="M655.21893,427.05051H446.06454c-1.92505,0-3.4859-1.56082-3.4859-3.4859v-32.17825
		c0-1.92508,1.56085-3.4859,3.4859-3.4859h209.15439c1.92505,0,3.4859,1.56082,3.4859,3.4859v32.17825
		C658.70483,425.48969,657.14398,427.05051,655.21893,427.05051z M449.55048,420.0787h202.18256v-25.20645H449.55048V420.0787z"/>
</g>
<g>
	<path class="st2" d="M913.74445,432.11426h-38.573c-6.14801,0-11.15222-5.00076-11.15222-11.14877
		c0-6.14798,5.00421-11.15048,11.15222-11.15048h35.16882c8.29266,0,15.03638-6.74542,15.03638-15.03638
		c0-8.29092-6.74371-15.03635-15.03638-15.03635H856.513c-1.92682,0-3.48596-1.56085-3.48596-3.48593s1.55914-3.4859,3.48596-3.4859
		h53.82727c12.13599,0,22.00818,9.87219,22.00818,22.00818c0,12.13602-9.87219,22.00821-22.00818,22.00821h-35.16882
		c-2.30469,0-4.18036,1.87399-4.18036,4.17865c0,2.30295,1.87567,4.17697,4.18036,4.17697h38.573
		c1.92682,0,3.4859,1.56082,3.4859,3.4859S915.67126,432.11426,913.74445,432.11426z"/>
	<circle class="st13" cx="834.37634" cy="334.1427" r="75.58897"/>
	<path class="st14" d="M889.65948,282.71045c3.5105,8.71863,5.49042,18.2189,5.49042,28.194
		c0,41.74661-33.84235,75.58899-75.58899,75.58899c-21.85388,0-41.48242-9.32947-55.28314-24.15674
		c11.18152,27.76981,38.32703,47.39496,70.09857,47.39496c41.74658,0,75.58899-33.84235,75.58899-75.58896
		C909.96533,314.24997,902.22162,296.20715,889.65948,282.71045z"/>
	<path class="st2" d="M834.37543,413.21753c-43.60107,0-79.07288-35.47354-79.07288-79.07458s35.4718-79.07458,79.07288-79.07458
		c43.60449,0,79.07629,35.47351,79.07629,79.07458S877.97992,413.21753,834.37543,413.21753z M834.37543,262.04016
		c-39.75769,0-72.10107,32.34506-72.10107,72.10278s32.34338,72.10275,72.10107,72.10275s72.10449-32.34506,72.10449-72.10275
		S874.13312,262.04016,834.37543,262.04016z"/>
	<g>
		<path class="st2" d="M800.77252,405.65848c-0.51404,0-1.02808-0.11234-1.51147-0.34552
			c-19.84308-9.55731-34.89648-27.1145-41.30322-48.1712c-0.91229-3.0723-1.60675-5.96417-2.12762-8.86115
			c-0.85107-4.83228-1.26294-9.45178-1.26294-14.13766c0-2.4238,0.11914-4.91397,0.36084-7.61353
			c1.66467-17.24908,9.09259-33.6846,20.92566-46.30057c1.06207-1.12851,2.73694-1.42468,4.11908-0.7251
			c1.38208,0.69955,2.1344,2.22803,1.85187,3.74973c-1.58978,8.4986-2.49866,17.13336-2.70636,25.6626
			c-0.04425,1.57785-0.08508,3.10123-0.08508,4.66718c0,5.77182,0.29956,11.56577,0.88507,17.21844
			c0.55493,5.31738,1.36511,10.57858,2.41022,15.63724c3.89441,19.22693,11.0943,37.35434,21.40222,53.89026
			c0.82043,1.31573,0.67401,3.01611-0.36426,4.17017C802.68909,405.25507,801.73932,405.65848,800.77252,405.65848z
			 M773.04529,295.11542c-6.18884,9.59647-10.07306,20.638-11.17603,32.06253c-0.22125,2.46634-0.3302,4.75226-0.3302,6.965
			c0,4.27567,0.37787,8.50031,1.15399,12.91556c0.47321,2.62802,1.1098,5.27481,1.94385,8.07648
			c4.56842,15.02444,13.98444,28.1051,26.54938,37.25562c-7.26117-13.9964-12.52405-28.93063-15.69-44.55423
			c-1.08594-5.27313-1.93359-10.7641-2.50885-16.31296c-0.61621-5.89267-0.92596-11.92834-0.92596-17.94016
			c0-1.63062,0.04083-3.21869,0.08508-4.8493C772.25891,304.21317,772.55847,299.66345,773.04529,295.11542z"/>
		<path class="st2" d="M864.48224,406.60825c-0.85449,0-1.69873-0.31488-2.35236-0.91403
			c-18.71631-17.12485-31.75439-39.17899-37.70496-63.77777c-2.38635-9.76157-3.59821-19.86353-3.59821-30.01828
			c0-9.29349,0.98718-18.39633,2.93097-27.2677c2.04938-9.45856,5.23572-18.72653,9.46368-27.54172
			c0.59576-1.24593,1.86896-2.05443,3.25446-1.97614c1.37872,0.04425,2.71655,0.13277,4.05103,0.22298
			c1.39569,0.14638,2.6076,0.28085,3.82288,0.46127c1.31061,0.1685,2.65192,0.39149,3.98975,0.61446
			c1.2323,0.23489,2.37274,0.49701,3.51654,0.76083l0.69446,0.17191c0.9021,0.2247,1.82123,0.45276,2.70978,0.71149
			c0.04761,0.01361,0.28595,0.09363,0.33356,0.10895c1.19153,0.3251,2.39319,0.69617,3.59827,1.11316l1.15063,0.41531
			c1.6272,0.57022,3.26801,1.2085,4.90887,1.93701c4.23822,1.87061,8.25519,4.07822,11.93512,6.55991
			c1.29358,0.79999,2.62805,1.72763,3.86035,2.68591c1.34808,0.99911,2.70978,2.08676,4.0238,3.22037
			c1.09955,0.92935,2.17529,1.95572,3.25098,2.98718c0.38812,0.29788,0.76935,0.66382,1.17108,1.1319
			c0.88165,0.86807,1.88934,1.96085,2.89697,3.0553c1.25275,1.39572,2.32849,2.69781,3.40759,4.04248
			c1.1983,1.49954,2.21954,2.89868,3.1319,4.2825c1.79742,2.59399,3.51312,5.47565,5.19141,8.74197
			c0.03741,0.06808,0.07489,0.13959,0.10553,0.21106l0.00342-0.00168c0.47314,0.94806,0.92932,1.86209,1.33783,2.82379
			c0.28937,0.51743,0.65704,1.34805,0.9668,2.17868c0.43573,1.01785,0.88171,2.17868,1.33105,3.33783
			c0.56848,1.61017,1.04169,2.95483,1.43317,4.2995c0.45276,1.40253,0.83063,2.78635,1.12677,4.13611
			c0.06812,0.20596,0.12939,0.44086,0.17023,0.69788c0.33362,1.33444,0.59576,2.67059,0.85443,4.04758
			c0.22809,1.1983,0.41534,2.41019,0.55493,3.66803c0.10889,0.63321,0.20422,1.49615,0.29614,2.31998
			c0.14301,1.25275,0.23486,2.46466,0.28253,3.72079c0.08514,1.37021,0.13281,2.86804,0.13281,4.36591
			c0,1.16254-0.04089,2.32336-0.08173,3.44675c-0.05109,1.49786-0.14301,2.86975-0.27917,4.24164
			c0.01025,0.18723-0.04761,0.48682-0.10553,0.74213c-0.13953,1.60168-0.35742,3.16422-0.61957,4.68417
			c-0.31995,1.83148-0.64337,3.60336-1.09613,5.37354c-0.34381,1.51999-0.76251,3.13019-1.26636,4.69611
			c-0.1532,0.4715-0.22467,0.68427-0.30981,0.89871c-0.39484,1.30212-0.93616,2.88165-1.52509,4.41696l0,0
			c-0.034,0.09021-0.07147,0.17871-0.1123,0.26553c-0.48682,1.22382-1.01105,2.4476-1.57953,3.67142
			c-0.22809,0.58725-0.58557,1.34808-0.98724,2.10892c-0.43231,0.94977-0.9906,2.02719-1.59998,3.10632l-0.4834,0.93106
			c-0.85107,1.50806-1.66125,2.81699-2.47485,4.07996c-0.8681,1.32251-1.72253,2.62292-2.66211,3.83823
			c-0.10211,0.15829-0.20764,0.30978-0.27911,0.39658c-0.04425,0.0596-0.11914,0.14981-0.19403,0.24002
			c-0.81366,1.11145-1.63403,2.1821-2.52936,3.21527c-0.25873,0.36084-0.54468,0.68933-0.85101,0.98212
			c-0.65704,0.8136-1.3515,1.59317-2.08337,2.36932c-0.41193,0.49359-1.04169,1.12848-1.67151,1.75827
			c-0.56506,0.61105-1.26636,1.31232-1.97101,1.91315c-0.59576,0.60767-1.40936,1.37701-2.2774,2.07486
			c-0.51404,0.50552-1.03833,0.9617-1.59998,1.3736c-0.55151,0.50214-1.31744,1.09277-2.09698,1.65106
			c-0.84766,0.73529-1.77362,1.38892-2.65869,1.99484c-0.12939,0.12766-0.45618,0.35403-0.85785,0.59406
			c-1.02808,0.76083-2.15149,1.49103-3.43146,2.22803c-2.71997,1.72086-5.828,3.38208-9.11646,4.86462
			C865.45581,406.50781,864.96564,406.60825,864.48224,406.60825z M838.53198,262.18994
			c-3.51318,7.69693-6.18549,15.73254-7.96246,23.92477c-1.83826,8.38965-2.771,16.99039-2.771,25.56729
			c0,9.81259,1.1438,19.358,3.40076,28.58679c5.44336,22.5018,17.15723,42.74661,33.93652,58.69702
			c2.22638-1.08594,4.29956-2.23828,6.29437-3.49783c1.22211-0.70807,2.16852-1.32422,3.00934-1.95572
			c0.11572-0.08679,0.23492-0.16681,0.36084-0.23828c0.11572-0.06638,0.2179-0.12936,0.31659-0.21277
			c0.97021-0.68256,1.71576-1.19318,2.37958-1.78549c0.09869-0.08682,0.20081-0.16852,0.30634-0.24341
			c0.64001-0.45105,1.27661-0.93616,1.91656-1.49786c0.57532-0.43744,0.87152-0.71317,1.1745-1.01443
			c0.09528-0.09705,0.19739-0.18893,0.30634-0.27234c0.7149-0.56342,1.38892-1.20679,2.02893-1.8468
			c0.70465-0.61615,1.2085-1.12677,1.67828-1.63229c0.58209-0.58554,1.07568-1.07404,1.49445-1.56766
			c0.78638-0.83914,1.41272-1.54208,1.99823-2.28421c0.14978-0.18723,0.31659-0.35745,0.49701-0.51062
			c0.08514-0.12427,0.16345-0.24512,0.26215-0.35745c0.84082-0.95828,1.59656-1.95914,2.35571-2.99741
			c0.07147-0.09702,0.14978-0.19232,0.22809-0.28085c0.06805-0.11063,0.14294-0.21786,0.22125-0.31998
			c0.85107-1.09277,1.61359-2.26892,2.38293-3.44336c0.73193-1.13361,1.47406-2.33017,2.17529-3.5676l0.47998-0.92596
			c0.59235-1.05872,1.06897-1.96591,1.5047-2.914c0.37103-0.71149,0.61957-1.24423,0.83405-1.77869
			c0.60931-1.32254,1.09955-2.46805,1.54889-3.61356h0.00342c0.02722-0.06979,0.05444-0.13788,0.0885-0.20596
			c0.51062-1.35318,0.98718-2.7438,1.42297-4.13611c0.15997-0.50043,0.23145-0.7132,0.31659-0.92764
			c0.35059-1.12,0.71484-2.53275,1.03485-3.94547c0.43573-1.69022,0.71826-3.28848,1.00427-4.9259
			c0.24164-1.39743,0.4425-2.85101,0.56165-4.34375c0.01703-0.19916,0.05109-0.3949,0.09875-0.58893
			c0.00342-0.00681,0.00342-0.01193,0.00342-0.01193c0.00336,0-0.02386,0.1532-0.02386,0.36426
			c0.13959-1.56763,0.2179-2.78635,0.26215-4.00674c0.04083-1.18295,0.08167-2.26041,0.08167-3.33612
			c0-1.35489-0.04083-2.70636-0.12256-4.01868c-0.04425-1.15741-0.1225-2.19229-0.2417-3.22888
			c-0.08508-0.77786-0.16339-1.50806-0.27911-2.20251c-0.14636-1.26126-0.3064-2.29614-0.50385-3.32761
			c-0.24506-1.31573-0.48676-2.5787-0.8136-3.84164c-0.02039-0.0715-0.03406-0.14297-0.04767-0.21448
			c-0.03064-0.09363-0.05444-0.18552-0.07489-0.28085c-0.2757-1.30551-0.63318-2.57187-1.03143-3.80078
			c-0.38129-1.31912-0.8136-2.53442-1.24597-3.75314c-0.4425-1.16934-0.86127-2.25528-1.3208-3.33954
			c-0.26556-0.69275-0.50385-1.24423-0.7796-1.76166c-0.47998-1.09274-0.87823-1.88254-1.27313-2.67572
			c-0.01361-0.02722-0.02728-0.05615-0.04089-0.0834c-0.01697-0.02893-0.03064-0.05786-0.04425-0.08679
			c-1.54211-2.99231-3.10461-5.61865-4.77606-8.03223c-0.89532-1.36169-1.82806-2.61444-2.79486-3.82632
			c-0.99402-1.24084-1.98804-2.44421-3.0672-3.64932c-0.97021-1.05017-1.91315-2.07654-2.89697-3.06036l-0.34045-0.36597
			c-0.17358-0.11572-0.23486-0.17191-0.38464-0.31659c-1.02808-0.9855-2.05273-1.97443-3.12164-2.87823
			c-1.21191-1.0434-2.44421-2.02893-3.71399-2.97189c-1.09955-0.85443-2.23315-1.64081-3.43146-2.38464
			c-3.44843-2.32336-7.1012-4.33014-10.96832-6.03564c-1.48083-0.65701-2.95148-1.2272-4.45953-1.75827l-1.15063-0.4136
			c-0.95654-0.33191-2.00165-0.65192-3.04333-0.93277c-0.07147-0.01871-0.33362-0.10382-0.40173-0.12766
			c-0.86121-0.25531-1.69183-0.46127-2.50549-0.66382l-0.58209-0.14639c-1.0553-0.24167-2.11401-0.48679-3.17615-0.69104
			c-1.17102-0.19403-2.42377-0.40341-3.72076-0.57019c-1.18805-0.17532-2.30463-0.29959-3.46552-0.42383
			C839.47833,262.25122,839.01196,262.2189,838.53198,262.18994z"/>
		<path class="st2" d="M864.4856,406.60995c-1.33099,0-2.60077-0.76425-3.18292-2.05615
			c-0.78973-1.75485-0.00677-3.81952,1.7464-4.60928c3.0365-1.3685,5.77692-2.83231,8.3811-4.47653
			c1.22211-0.70807,2.16852-1.32422,3.00934-1.95572c0.11572-0.08679,0.23492-0.16681,0.36084-0.23828
			c0.11572-0.06638,0.2179-0.12936,0.31659-0.21277c0.97021-0.68256,1.71576-1.19318,2.37958-1.78549
			c0.09869-0.08682,0.20081-0.16852,0.30634-0.24341c0.64001-0.45105,1.27661-0.93616,1.91656-1.49786
			c0.57532-0.43915,0.87488-0.71658,1.17786-1.01785c0.09534-0.09363,0.19403-0.18213,0.29956-0.26553
			c0.7149-0.56509,1.38892-1.21017,2.03235-1.85019c0.63318-0.59061,1.17444-1.09274,1.67828-1.63229
			c0.58209-0.58554,1.07568-1.07404,1.49445-1.56766c0.89191-0.90723,1.46039-1.55573,1.92676-2.19058
			c0.16681-0.22299,0.35742-0.42554,0.56848-0.60425c0.08514-0.12427,0.16345-0.24512,0.26215-0.35745
			c0.87488-0.99744,1.65106-1.98294,2.30804-2.92932c0.08508-0.12256,0.177-0.23828,0.27576-0.34894
			c0.05786-0.0936,0.11914-0.18552,0.18719-0.27234c0.8443-1.12677,1.65106-2.25528,2.37958-3.42291
			c0.84082-1.24765,1.52509-2.42209,2.21271-3.63568l0.47998-0.92596c0.59576-1.05872,1.06897-1.96591,1.5047-2.914
			c0.37103-0.71149,0.61957-1.24423,0.83405-1.77869c0.62292-1.31061,1.10291-2.48337,1.54889-3.61356h0.00342
			c0.02722-0.06979,0.05444-0.13788,0.0885-0.20596c0.51062-1.35318,0.98718-2.7438,1.42297-4.13611
			c0.10889-0.34042,0.177-0.54807,0.23486-0.7132c0.40167-1.36166,0.79999-2.75909,1.12-4.15823
			c0.37445-1.63571,0.71149-3.26123,1.00085-4.92758c0.23828-1.42636,0.4425-2.84592,0.56165-4.34375
			c0.01703-0.19916,0.05109-0.3949,0.09875-0.58893c0.00342-0.00681,0.00342-0.01193,0.00342-0.01193
			c0.00336,0-0.02386,0.1532-0.02386,0.36426c0.13959-1.56595,0.2179-2.78635,0.26215-4.00674
			c0.04083-1.18295,0.08167-2.26041,0.08167-3.33612c0-1.35489-0.04083-2.70636-0.12256-4.01868
			c-0.04425-1.15741-0.1225-2.19229-0.2417-3.22888c-0.08508-0.77786-0.16339-1.50806-0.27911-2.20251
			c-0.14301-1.21021-0.3064-2.28934-0.50385-3.32932c-0.21783-1.3804-0.49701-2.60931-0.8136-3.83994
			c-0.02039-0.0715-0.03406-0.14297-0.04767-0.21448c-0.03064-0.09363-0.05444-0.18723-0.07489-0.28085
			c-0.2757-1.30551-0.63318-2.57187-1.03143-3.80078c-0.39148-1.38892-0.78296-2.61273-1.25616-3.79401
			c-0.43573-1.12848-0.85107-2.21442-1.31403-3.30035c-0.26215-0.69107-0.50043-1.24255-0.77618-1.75998
			c-0.47998-1.09274-0.87823-1.88254-1.27313-2.67572c-0.01361-0.02383-0.02386-0.04764-0.03748-0.07318
			c-0.0238-0.04425-0.04767-0.0885-0.06805-0.13275c-1.34808-2.69614-2.94806-5.38718-4.75568-7.99649
			c-0.89532-1.36169-1.82806-2.61444-2.79486-3.82632c-1.03149-1.34296-2.03571-2.53784-3.02637-3.60336
			c-0.98041-1.15402-1.93359-2.14294-2.88336-3.05527l-0.3949-0.41702c-0.19403-0.12936-0.27228-0.20255-0.43909-0.36765
			c-1.00769-1.01105-2.01532-1.93869-3.0672-2.82718c-1.21191-1.0434-2.44421-2.02893-3.71399-2.97189
			c-1.13702-0.85443-2.26379-1.66125-3.43146-2.38464c-3.44843-2.32336-7.1012-4.33014-10.96832-6.03564
			c-1.40936-0.60254-2.93445-1.22211-4.45953-1.75827l-1.14038-0.41022c-0.97021-0.3353-2.0119-0.65701-3.05359-0.93616
			l-0.57532-0.18552c-0.69446-0.20087-1.5285-0.4068-2.34552-0.60934l-0.56848-0.14301
			c-1.0553-0.24167-2.11401-0.48679-3.17615-0.69104c-1.17102-0.19403-2.42377-0.40341-3.72076-0.57019
			c-1.18805-0.17532-2.30463-0.29959-3.46552-0.42383c-1.11993-0.0715-2.3761-0.15662-3.6731-0.19745
			c-1.9234-0.06128-3.43146-1.67148-3.37018-3.59485c0.05786-1.92337,1.51147-3.47398,3.59485-3.37357
			c1.37872,0.04425,2.71655,0.13277,4.05103,0.22298c1.39569,0.14638,2.6076,0.28085,3.82288,0.46127
			c1.31061,0.1685,2.65192,0.39149,3.98975,0.61446c1.2323,0.23489,2.37274,0.49701,3.51654,0.76083l0.68085,0.16852
			c0.90894,0.22467,1.83148,0.45615,2.73016,0.71829l0.53784,0.177c0.98047,0.25531,2.18555,0.62469,3.38721,1.0434l1.15063,0.4136
			c1.61017,0.56509,3.28503,1.24255,4.86462,1.91827c4.28247,1.88934,8.29944,4.09695,11.97937,6.57864
			c1.22552,0.76083,2.52252,1.67996,3.8161,2.65015c1.39233,1.03488,2.75403,2.12253,4.06805,3.25613
			c1.10974,0.93958,2.19568,1.93359,3.28162,3.01102c0.37787,0.29276,0.74896,0.65363,1.14044,1.10806
			c0.99744,0.93616,2.09698,2.1004,3.05017,3.2272c1.02808,1.10126,2.17529,2.46463,3.29865,3.92844
			c1.15405,1.44168,2.17529,2.84082,3.08765,4.22464c1.9472,2.80847,3.71399,5.78372,5.20844,8.77261
			c0.03064,0.0596,0.06128,0.11917,0.0885,0.18042l0.00342-0.00168c0.47314,0.94806,0.92932,1.86209,1.33783,2.82379
			c0.28937,0.51743,0.65704,1.34805,0.9668,2.17868c0.43573,1.02127,0.88507,2.17868,1.33105,3.33783
			c0.50378,1.26636,0.98041,2.69443,1.43994,4.32675c0.44598,1.37698,0.82385,2.75909,1.12,4.10886
			c0.06812,0.20596,0.12939,0.43744,0.17023,0.69275c0.34723,1.3685,0.64679,2.74039,0.87146,4.15143
			c0.21106,1.09616,0.3949,2.34891,0.53448,3.55402c0.1123,0.6485,0.21106,1.51144,0.29956,2.33527
			c0.14301,1.25275,0.23486,2.46466,0.28253,3.72079c0.08514,1.37021,0.13281,2.86804,0.13281,4.36591
			c0,1.16254-0.04089,2.32336-0.08173,3.44675c-0.05109,1.49786-0.14301,2.87146-0.27917,4.24335
			c0.01025,0.18552-0.04761,0.48511-0.10553,0.74042c-0.13953,1.59317-0.35742,3.11145-0.61615,4.66718
			c-0.32001,1.81952-0.67743,3.56418-1.0791,5.30884c-0.35748,1.57275-0.81024,3.1557-1.263,4.69269
			c-0.034,0.11404-0.07147,0.22638-0.11572,0.33704c-0.06128,0.21957-0.13275,0.43234-0.2179,0.64679
			c-0.39484,1.30212-0.93616,2.88165-1.52509,4.41696l0,0c-0.034,0.09021-0.07147,0.177-0.1123,0.26382
			c-0.49359,1.24423-1.02466,2.52423-1.59998,3.71909c-0.20764,0.54129-0.56512,1.30212-0.9668,2.06296
			c-0.43231,0.94977-0.99402,2.03061-1.60339,3.10803l-0.47998,0.92935c-0.86469,1.53189-1.64423,2.86295-2.5191,4.14804
			c-0.74554,1.20508-1.65448,2.48166-2.6076,3.75482c-0.10553,0.1651-0.2179,0.32169-0.28937,0.4119
			c-0.03748,0.05109-0.10553,0.13278-0.17365,0.21448c-0.75232,1.07574-1.58972,2.13956-2.54974,3.24249
			c-0.24847,0.34213-0.51746,0.65701-0.80676,0.93616c-0.6264,0.82214-1.34808,1.63745-2.19916,2.48679
			c-0.34039,0.42041-0.97015,1.0553-1.59998,1.68509c-0.53107,0.577-1.19489,1.19827-1.86548,1.81955
			c-0.69446,0.69614-1.51489,1.47061-2.38293,2.17017c-0.51404,0.50381-1.03833,0.95999-1.59998,1.37189
			c-0.55151,0.50214-1.31744,1.09277-2.09698,1.65106c-0.84766,0.73529-1.77362,1.38892-2.65869,1.99484
			c-0.12939,0.12766-0.45618,0.35403-0.85785,0.59406c-1.02808,0.76083-2.15149,1.49103-3.43146,2.22803
			c-2.71997,1.72086-5.828,3.38208-9.11646,4.86462C865.44904,406.50952,864.96222,406.60995,864.4856,406.60995z"/>
		<path class="st2" d="M864.4856,406.60995c-1.33099,0-2.60077-0.76425-3.18292-2.05615
			c-0.78973-1.75485-0.00677-3.81952,1.7464-4.60928c3.0365-1.3685,5.77692-2.83231,8.3811-4.47653
			c1.22211-0.70807,2.16852-1.32422,3.00934-1.95572c0.11572-0.08679,0.23492-0.16681,0.36084-0.23828
			c0.11572-0.06638,0.2179-0.12936,0.31659-0.21277c0.97021-0.68256,1.71576-1.19318,2.37958-1.78549
			c0.09869-0.08682,0.20081-0.16852,0.30634-0.24341c0.64001-0.45105,1.27661-0.93616,1.91656-1.49786
			c0.57532-0.43915,0.87488-0.71658,1.17786-1.01785c0.09534-0.09363,0.19403-0.18213,0.29956-0.26553
			c0.7149-0.56509,1.38892-1.21017,2.03235-1.85019c0.63318-0.59061,1.17444-1.09274,1.67828-1.63229
			c0.58209-0.58554,1.07568-1.07404,1.49445-1.56766c0.89191-0.90723,1.46039-1.55573,1.92676-2.19058
			c0.16681-0.22299,0.35742-0.42554,0.56848-0.60425c0.08514-0.12427,0.16345-0.24512,0.26215-0.35745
			c0.87488-0.99744,1.65106-1.98294,2.30804-2.92932c0.08508-0.12256,0.177-0.23828,0.27576-0.34894
			c0.05786-0.0936,0.11914-0.18552,0.18719-0.27234c0.8443-1.12677,1.65106-2.25528,2.37958-3.42291
			c0.76935-1.19827,1.51147-2.39658,2.21271-3.63568l0.47998-0.92596c0.59576-1.05872,1.06897-1.96591,1.5047-2.914
			c0.37103-0.71149,0.61957-1.24423,0.83405-1.77869c0.62292-1.31061,1.10291-2.48337,1.54889-3.61356h0.00342
			c0.02722-0.06979,0.05444-0.13788,0.0885-0.20596c0.51062-1.35318,0.98718-2.7438,1.42297-4.13611
			c0.15997-0.50043,0.23145-0.7132,0.31659-0.92764c0.35059-1.12,0.71484-2.53275,1.03827-3.94379
			c0.37445-1.63571,0.71149-3.26123,1.00085-4.92758c0.24164-1.39743,0.4425-2.85101,0.56165-4.34375
			c0.01703-0.19916,0.05109-0.3949,0.09875-0.58893c0.00342-0.00681,0.00342-0.01193,0.00342-0.01193
			c0.00336,0-0.02386,0.1532-0.02386,0.36426c0.13959-1.56595,0.2179-2.78635,0.26215-4.00674
			c0.04083-1.18295,0.08167-2.26041,0.08167-3.33612c0-1.35489-0.04083-2.70636-0.12256-4.01868
			c-0.04425-1.15741-0.1225-2.19229-0.2417-3.22888c-0.08508-0.77786-0.16339-1.50806-0.27911-2.20251
			c-0.14636-1.26126-0.3064-2.29443-0.50385-3.32932c-0.24506-1.31403-0.48676-2.577-0.8136-3.83994
			c-0.02039-0.0715-0.03406-0.14297-0.04767-0.21448c-0.03064-0.09363-0.05444-0.18723-0.07489-0.28085
			c-0.2757-1.30551-0.63318-2.57187-1.03143-3.80078c-0.39148-1.38892-0.78296-2.61273-1.25616-3.79401
			c-0.43573-1.12848-0.85107-2.21442-1.31403-3.30035c-0.26215-0.69107-0.50043-1.24255-0.77618-1.75998
			c-0.47998-1.09274-0.87823-1.88254-1.27313-2.67572c-0.01361-0.02383-0.02386-0.04764-0.03748-0.07318
			c-0.0238-0.04425-0.04767-0.0885-0.06805-0.13275c-1.34808-2.69614-2.94806-5.38718-4.75568-7.99649
			c-0.89532-1.36169-1.82806-2.61444-2.79486-3.82632c-1.03149-1.34296-2.03571-2.53784-3.02637-3.60336
			c-0.98041-1.15402-1.93359-2.14294-2.88336-3.05527l-0.3949-0.41702c-0.19403-0.12936-0.27228-0.20255-0.43909-0.36765
			c-1.00769-1.01105-2.01532-1.93869-3.0672-2.82718c-1.21191-1.0434-2.44421-2.02893-3.71399-2.97189
			c-1.13702-0.85443-2.26379-1.66125-3.43146-2.38464c-3.44843-2.32336-7.1012-4.33014-10.96832-6.03564
			c-1.40936-0.60254-2.93445-1.22211-4.45953-1.75827l-1.14038-0.41022c-0.97021-0.3353-2.0119-0.65701-3.05359-0.93616
			l-0.57532-0.18552c-0.69446-0.20087-1.5285-0.4068-2.34552-0.60934l-0.56848-0.14301
			c-1.0553-0.24167-2.11401-0.48679-3.17615-0.69104c-1.17102-0.19403-2.42377-0.40341-3.72076-0.57019
			c-1.18805-0.17532-2.30463-0.29959-3.46552-0.42383c-1.11993-0.0715-2.3761-0.15662-3.6731-0.19745
			c-1.9234-0.06128-3.43146-1.67148-3.37018-3.59485c0.05786-1.92337,1.51147-3.47398,3.59485-3.37357
			c1.37872,0.04425,2.71655,0.13277,4.05103,0.22298c1.39569,0.14638,2.6076,0.28085,3.82288,0.46127
			c1.31061,0.1685,2.65192,0.39149,3.98975,0.61446c1.2323,0.23489,2.37274,0.49701,3.51654,0.76083l0.68085,0.16852
			c0.90894,0.22467,1.83148,0.45615,2.73016,0.71829l0.53784,0.177c0.98047,0.25531,2.18555,0.62469,3.38721,1.0434l1.15063,0.4136
			c1.61017,0.56509,3.28503,1.24255,4.86462,1.91827c4.28247,1.88934,8.29944,4.09695,11.97937,6.57864
			c1.22552,0.76083,2.52252,1.67996,3.8161,2.65015c1.39233,1.03488,2.75403,2.12253,4.06805,3.25613
			c1.10974,0.93958,2.19568,1.93359,3.28162,3.01102c0.37787,0.29276,0.74896,0.65363,1.14044,1.10806
			c0.99744,0.93616,2.09698,2.1004,3.05017,3.2272c1.02808,1.10126,2.17529,2.46463,3.29865,3.92844
			c1.15405,1.44168,2.17529,2.84082,3.08765,4.22464c1.9472,2.80847,3.71399,5.78372,5.20844,8.77261
			c0.03064,0.0596,0.06128,0.11917,0.0885,0.18042l0.00342-0.00168c0.47314,0.94806,0.92932,1.86209,1.33783,2.82379
			c0.28937,0.51743,0.65704,1.34805,0.9668,2.17868c0.43573,1.02127,0.88507,2.17868,1.33105,3.33783
			c0.50378,1.26636,0.98041,2.69443,1.43994,4.32675c0.44598,1.37698,0.82385,2.75909,1.12,4.10886
			c0.06812,0.20596,0.12939,0.44086,0.17023,0.69788c0.33362,1.33444,0.59576,2.67059,0.85443,4.04758
			c0.22809,1.19998,0.41534,2.41019,0.55493,3.66803c0.10889,0.63321,0.20764,1.49615,0.29614,2.31998
			c0.14301,1.25275,0.23486,2.46466,0.28253,3.72079c0.08514,1.37021,0.13281,2.86804,0.13281,4.36591
			c0,1.16254-0.04089,2.32336-0.08173,3.44675c-0.05109,1.49786-0.14301,2.87146-0.27917,4.24335
			c0.01025,0.18552-0.04761,0.48511-0.10553,0.74042c-0.13953,1.60168-0.35742,3.16422-0.61957,4.68417
			c-0.31659,1.80252-0.67401,3.54718-1.07568,5.29184c-0.36426,1.60168-0.78296,3.21188-1.2868,4.7778
			c-0.1532,0.4715-0.22467,0.68427-0.30981,0.89871c-0.39484,1.30212-0.93616,2.88165-1.52509,4.41696l0,0
			c-0.034,0.09021-0.07147,0.177-0.1123,0.26382c-0.49359,1.24423-1.02466,2.52423-1.59998,3.71909
			c-0.20764,0.54129-0.56512,1.30212-0.9668,2.06296c-0.43231,0.94977-0.99402,2.03061-1.60339,3.10803l-0.47998,0.92935
			c-0.85107,1.50635-1.66125,2.81357-2.46808,4.07483c-0.79657,1.27829-1.70551,2.55487-2.65863,3.82803
			c-0.10553,0.1651-0.2179,0.32169-0.28937,0.4119c-0.03748,0.05109-0.10553,0.13278-0.17365,0.21448
			c-0.75232,1.07574-1.58972,2.13956-2.54974,3.24249c-0.24847,0.34213-0.51746,0.65701-0.80676,0.93616
			c-0.6264,0.82214-1.34808,1.63745-2.19916,2.48679c-0.34039,0.42041-0.97015,1.0553-1.59998,1.68509
			c-0.53107,0.577-1.19489,1.19827-1.86548,1.81955c-0.69446,0.69614-1.51489,1.47061-2.38293,2.17017
			c-0.51404,0.50381-1.03833,0.95999-1.59998,1.37189c-0.55151,0.50214-1.31744,1.09277-2.09698,1.65106
			c-0.84766,0.73529-1.77362,1.38892-2.65869,1.99484c-0.12939,0.12766-0.45618,0.35403-0.85785,0.59406
			c-1.02808,0.76083-2.15149,1.49103-3.43146,2.22803c-2.71997,1.72086-5.828,3.38208-9.11646,4.86462
			C865.44904,406.50952,864.96222,406.60995,864.4856,406.60995z"/>
		<path class="st2" d="M832.9082,413.21753c-0.01361,0-0.02722,0-0.03741,0c-11.84326-0.13278-23.15881-2.79486-33.63019-7.91309
			c-0.58551-0.28766-1.0791-0.73361-1.42633-1.28848c-10.75049-17.24402-18.25677-36.14587-22.31799-56.1796
			c-1.08594-5.27313-1.93359-10.76581-2.51227-16.31296c-0.61279-5.89267-0.92255-11.92834-0.92255-17.94016
			c0-1.63062,0.04083-3.21869,0.08508-4.8493c0.2179-8.89008,1.16766-17.8959,2.82208-26.76047
			c0.12256-0.64679,0.42212-1.24591,0.87152-1.72763c7.86029-8.49347,17.72565-15.24744,28.52722-19.53333
			c1.2868-0.50552,2.74377-0.21277,3.7276,0.75064c0.98383,0.96509,1.30719,2.41867,0.82379,3.70886
			c-3.58459,9.60498-6.09351,19.60992-7.4552,29.74084c-0.87146,6.16333-1.31061,12.61087-1.31061,19.18781
			c0,1.66977,0.04425,3.34122,0.12598,5.01099c0.20764,7.27139,1.03143,14.57852,2.44421,21.79031
			c4.74542,24.65668,16.08484,47.65378,32.79608,66.51819c0.91235,1.03146,1.13361,2.50549,0.55829,3.75992
			C835.51245,412.42264,834.2699,413.21753,832.9082,413.21753z M803.19971,399.47134
			c6.91052,3.25952,14.21594,5.3548,21.81415,6.26202c-14.65167-18.5257-24.67365-40.3194-29.1366-63.50204
			c-1.48419-7.57605-2.34888-15.26614-2.56677-22.84732c-0.08508-1.71402-0.12933-3.4978-0.12933-5.28333
			c0-6.90204,0.46295-13.6781,1.37531-20.13928c1.06549-7.91138,2.79822-15.76315,5.17096-23.42603
			c-6.71649,3.58121-12.8645,8.23648-18.08655,13.71555c-1.474,8.17688-2.32166,16.46954-2.52252,24.66516
			c-0.04425,1.57785-0.08508,3.10123-0.08508,4.66718c0,5.77182,0.29956,11.56577,0.88507,17.21844
			c0.55493,5.31738,1.36511,10.57858,2.41022,15.63724C786.15485,365.33395,793.17773,383.16861,803.19971,399.47134z"/>
		<path class="st2" d="M833.64349,413.21753h-0.73529c-0.99744,0-1.9472-0.42725-2.61102-1.17447
			c-17.53845-19.80057-29.43958-43.94147-34.41992-69.81174c-1.48419-7.57605-2.34888-15.26614-2.56677-22.84732
			c-0.08508-1.71402-0.12933-3.4978-0.12933-5.28333c0-6.90204,0.46295-13.6781,1.37531-20.13928
			c1.42975-10.6228,4.06458-21.13669,7.83307-31.22678c0.34039-0.91571,1.05188-1.64594,1.95398-2.01187
			c10.13092-4.10547,20.98352-6.12758,32.18335-5.60843c1.16766,0.05446,2.2298,0.69106,2.82892,1.69528
			c0.59912,1.00424,0.65704,2.24167,0.14978,3.29529c-3.9931,8.32327-6.99902,17.07547-8.93604,26.00983
			c-1.83826,8.38965-2.771,16.99039-2.771,25.56729c0,9.81259,1.1438,19.358,3.40076,28.58679
			c5.62378,23.25412,17.94702,44.09637,35.63525,60.28168c0.86469,0.78976,1.27319,1.96082,1.08936,3.11826
			c-0.18384,1.15573-0.9328,2.14294-1.99829,2.62802c-5.26971,2.39316-10.83899,4.19571-16.55463,5.35312
			C844.23743,412.68985,838.94727,413.21753,833.64349,413.21753z M808.38776,266.62564
			c-3.30212,9.159-5.63062,18.66696-6.92419,28.28723c-0.87146,6.16333-1.31061,12.61087-1.31061,19.18781
			c0,1.66977,0.04425,3.34122,0.12598,5.01099c0.20764,7.27139,1.03143,14.57852,2.44421,21.79031
			c4.64673,24.14435,15.61505,46.69888,31.76123,65.33862c4.55823-0.05276,9.09601-0.53107,13.50446-1.42297
			c3.47229-0.70465,6.88672-1.66974,10.20239-2.88336c-16.61249-16.54102-28.24469-37.18411-33.7663-60.01782
			c-2.38635-9.76157-3.59821-19.86353-3.59821-30.01828c0-9.29349,0.98718-18.39633,2.93097-27.2677
			c1.66467-7.68668,4.08167-15.24744,7.19653-22.54092C823.14838,262.37207,815.57397,263.89548,808.38776,266.62564z"/>
		<path class="st2" d="M894.35071,382.52859c-0.8783,0-1.74976-0.32169-2.41699-0.97528
			c-0.27911-0.27405-0.5072-0.58212-0.67743-0.91064c-15.91467-20.12735-38.57306-32.93396-63.87653-36.08798
			c-1.90973-0.23828-3.26459-1.97952-3.02631-3.88928c0.23486-1.90976,1.97101-3.26636,3.89099-3.02805
			c27.36304,3.41101,51.83923,17.34613,68.91815,39.23856c1.09955,1.40936,0.95654,3.41953-0.3302,4.65695
			C896.14471,382.1933,895.24603,382.52859,894.35071,382.52859z"/>
		<path class="st2" d="M908.80157,345.48917c-0.28937,0.00168-0.58215-0.03577-0.87146-0.11066
			c-1.24597-0.31998-2.16168-1.27316-2.48853-2.42719c-18.27716-18.42868-42.58661-28.56128-68.6015-28.56128
			c-3.02637,0-6.04248,0.13785-9.00415,0.4119c0.2179,8.71817,1.34467,17.21848,3.36334,25.46686
			c0.45618,1.86893-0.68762,3.75653-2.55994,4.21271c-1.86548,0.44937-3.75482-0.68594-4.21442-2.55826
			c-2.38635-9.76837-3.59821-19.87033-3.59821-30.02509c0-1.75656,1.30719-3.45358,3.04675-3.67484
			c4.22461-0.53445,8.58539-0.80511,12.96661-0.80511c28.37061,0,54.84851,11.23898,74.55548,31.64551
			c0.6264,0.65021,0.97699,1.51828,0.97699,2.42209c0,0.61447-0.12933,1.11658-0.19745,1.38721
			C911.77002,344.44577,910.35388,345.48917,908.80157,345.48917z"/>
		<path class="st2" d="M901.10803,303.59189c-0.62976,0-1.26636-0.1702-1.83826-0.52594
			c-16.39124-10.19559-35.36285-15.58444-54.87238-15.58444c-5.56927,0-11.1828,0.44934-16.6806,1.33615
			c-1.90637,0.30466-3.69012-0.98724-3.99652-2.88678c-0.3064-1.90125,0.98718-3.69016,2.88678-3.99652
			c5.86542-0.94467,11.85004-1.42468,17.79034-1.42468c20.80994,0,41.05811,5.75311,58.55573,16.63635
			c1.63403,1.01617,2.13446,3.16592,1.11658,4.80164C903.41272,303.00809,902.27228,303.59189,901.10803,303.59189z"/>
		<path class="st2" d="M767.32281,373.91086c-0.19745,0-0.39832-0.01703-0.60254-0.05106
			c-1.89618-0.33191-3.16595-2.13785-2.83569-4.034c1.84503-10.56836,9.68835-21.28137,14.07635-23.34772
			c1.74298-0.82553,3.8161-0.07321,4.63654,1.66974c0.82043,1.73956,0.07489,3.81442-1.66467,4.63654
			c-1.97784,1.01105-8.66028,9.54028-10.17859,18.23975C770.45807,372.71768,768.98743,373.91086,767.32281,373.91086z"/>
		<path class="st2" d="M758.37317,344.58194c-0.49365,0-0.99744-0.10553-1.47406-0.32852
			c-1.74634-0.81699-2.49524-2.89355-1.67828-4.63651c3.22382-6.87991,14.99896-16.87637,19.00232-18.98868
			c1.7157-0.90039,3.80927-0.24509,4.71143,1.45529c0.89868,1.70383,0.24506,3.81271-1.45703,4.70972
			c-3.18292,1.67828-13.53851,10.64667-15.94531,15.78192C760.93994,343.83981,759.68378,344.58194,758.37317,344.58194z"/>
	</g>
</g>
<g>
	<path class="st2" d="M1196.61011,347.07721h-118.81702c-1.92676,0-3.48584-1.56082-3.48584-3.4859s1.55908-3.4859,3.48584-3.4859
		h118.81702c1.92676,0,3.48584,1.56082,3.48584,3.4859S1198.53687,347.07721,1196.61011,347.07721z"/>
	<path class="st15" d="M1197.81177,304.50943c19.59424,0,36.26904,12.19162,43.03943,29.37912
		c-6.98535,0.75397-13.09668,4.39148-17.13757,9.70251c4.04089,5.31104,10.15222,8.94882,17.13721,9.70279
		c-6.77051,17.1875-23.44482,29.37909-43.03906,29.37909c-6.21436,0-12.12134-1.25797-17.53101-3.47833
		c5.84729-23.7356,5.84729-47.47122,0-71.20685C1185.69043,305.76767,1191.59741,304.50943,1197.81177,304.50943z"/>
	<g>
		<path class="st2" d="M1197.81177,386.15918c-6.46802,0-12.81006-1.25784-18.85583-3.74121
			c-1.59668-0.6553-2.47485-2.38123-2.05957-4.0578c5.68494-23.07202,5.68494-46.46741,0-69.53772
			c-0.41528-1.67657,0.46289-3.4025,2.05957-4.0578c6.04578-2.48337,12.38782-3.74121,18.85583-3.74121
			c20.55798,0,38.72278,12.39981,46.28357,31.58762c0.39832,1.01276,0.30298,2.15146-0.26208,3.08249
			c-0.56177,0.93106-1.52856,1.54553-2.60767,1.66125c-4.88159,0.52765-9.45349,2.7608-12.90198,6.23651
			c3.44849,3.47571,8.02039,5.70886,12.90198,6.23651c1.0791,0.11572,2.0459,0.73019,2.60767,1.66125
			c0.56506,0.93103,0.6604,2.06973,0.26208,3.08249C1236.53455,373.75937,1218.36975,386.15918,1197.81177,386.15918z
			 M1184.37878,377.00189c4.354,1.45187,8.85779,2.18549,13.43298,2.18549c16.25854,0,30.77747-9.02625,38.06238-23.3205
			c-5.88928-1.66467-11.1759-5.22717-14.9342-10.16498c-0.94983-1.24762-0.94983-2.97357,0-4.22119
			c3.7583-4.93781,9.04492-8.50031,14.9342-10.16498c-7.28491-14.29425-21.80383-23.3205-38.06238-23.3205
			c-4.5752,0-9.07898,0.73361-13.43298,2.18549C1189.38635,332.36765,1189.38293,354.81326,1184.37878,377.00189z"/>
		<circle class="st2" cx="1207.22778" cy="328.40436" r="6.87956"/>
	</g>
	<g>
		<path class="st2" d="M1155.88904,390.19656c-0.35413,0-0.71497-0.05615-1.07239-0.1702
			c-1.83142-0.59064-2.83569-2.55655-2.24341-4.38803c8.87817-27.50766,8.87817-56.5864,0-84.09406
			c-0.59229-1.83148,0.41199-3.79739,2.24341-4.38803c1.84509-0.58893,3.79907,0.41702,4.38806,2.24677
			c9.33435,28.90851,9.33435,59.46808,0,88.37659C1158.73145,389.25531,1157.36304,390.19656,1155.88904,390.19656z"/>
		<path class="st2" d="M1138.07141,388.87234c-0.34387,0-0.69104-0.05276-1.03833-0.16
			c-1.83826-0.57361-2.86292-2.52762-2.29102-4.36588c8.32324-26.66174,8.32324-54.84857,0-81.51199
			c-0.5719-1.83829,0.45276-3.7923,2.29102-4.36591c1.85193-0.56851,3.79565,0.45276,4.36755,2.28934
			c8.74207,28.0217,8.74207,57.64511,0,85.6651C1140.93433,387.91577,1139.55566,388.87234,1138.07141,388.87234z"/>
		<path class="st2" d="M1120.64868,386.15918c-0.32007,0-0.64685-0.04596-0.97021-0.13956
			c-1.84851-0.53616-2.91406-2.46976-2.3761-4.31995c7.23047-24.93069,7.23047-51.28604,0-76.21674
			c-0.53796-1.85019,0.52759-3.78378,2.3761-4.31995c1.85522-0.53107,3.78552,0.53107,4.31653,2.37613
			c7.60498,26.20218,7.60498,53.90219,0,80.10437C1123.55579,385.16687,1122.16016,386.15918,1120.64868,386.15918z"/>
		<path class="st2" d="M1103.96802,380.3414c-0.27576,0-0.55139-0.03235-0.83057-0.10043
			c-1.8689-0.45615-3.01611-2.34207-2.55994-4.21268c5.18457-21.22012,5.18457-43.65384,0-64.87396
			c-0.45618-1.87061,0.69104-3.75653,2.55994-4.21268c1.86548-0.46127,3.75476,0.68423,4.21436,2.55826
			c5.4502,22.30264,5.4502,45.88016,0,68.1828C1106.96033,379.27588,1105.53735,380.3414,1103.96802,380.3414z"/>
		<path class="st2" d="M1087.9751,369.23859c-0.18384,0-0.36768-0.01361-0.55493-0.04425
			c-1.89954-0.30469-3.19653-2.09189-2.89014-3.99313c2.29785-14.3385,2.29785-28.88129,0-43.21979
			c-0.3064-1.90125,0.9906-3.68845,2.89014-3.99313c1.89282-0.31317,3.68677,0.98721,3.99316,2.89017
			c2.41357,15.07043,2.41357,30.35529,0,45.42572C1091.13757,368.01819,1089.65674,369.23859,1087.9751,369.23859z"/>
	</g>
	<g>
		<path class="st15" d="M1031.69678,384.0434c0,2.85629,0.27026,5.63559,0.77197,8.29895
			c24.00879-1.69839,43.23145-20.80511,45.1228-44.77542c0.1543-1.31226,0.19287-2.62473,0.19287-3.97562
			c0-1.3511-0.03857-2.66336-0.19287-3.97586c-1.89136-23.97006-21.11401-43.07678-45.1228-44.77518
			c-0.50171,2.66336-0.77197,5.44241-0.77197,8.29874c0,17.98743,10.65344,33.46582,26.01599,40.4523
			C1042.35022,350.57779,1031.69678,366.05618,1031.69678,384.0434z"/>
	</g>
	<g>
		<path class="st2" d="M1076.03308,334.20081c-1.02795,0-2.0459-0.45105-2.73352-1.31912
			c-6.42712-8.09689-14.87634-12.83557-26.59363-14.91043c-1.89612-0.33701-3.15918-2.14633-2.82214-4.04077
			c0.33362-1.89444,2.11743-3.15402,4.04077-2.8255c13.30713,2.3591,23.3938,8.06458,30.83533,17.44315
			c1.19824,1.50806,0.94641,3.70038-0.56165,4.89694C1077.55481,333.95401,1076.79224,334.20081,1076.03308,334.20081z"/>
		<path class="st2" d="M1047.31189,376.1304c-1.65784,0-3.12854-1.18808-3.4281-2.87827
			c-0.33704-1.89444,0.92603-3.70377,2.82214-4.04077c11.71729-2.07486,20.1665-6.81354,26.59363-14.91043
			c1.19482-1.50806,3.38379-1.75998,4.89868-0.56339c1.50806,1.19656,1.75989,3.38889,0.56165,4.89694
			c-7.44153,9.37857-17.5282,15.08405-30.83533,17.44315C1047.71692,376.11337,1047.5127,376.1304,1047.31189,376.1304z"/>
	</g>
	<g>
		<path class="st2" d="M1076.02979,340.34711c-0.80688,0-1.61707-0.27744-2.27405-0.84424
			c-4.79651-4.13101-11.18628-6.5582-20.10181-7.63736c-1.91321-0.23148-3.2749-1.96762-3.04333-3.87909
			c0.23145-1.90976,1.96411-3.27823,3.88074-3.04166c10.21265,1.23575,18.00146,4.2706,23.81238,9.27478
			c1.46045,1.25613,1.6239,3.45697,0.36768,4.91565C1077.98035,339.93689,1077.00671,340.34711,1076.02979,340.34711z"/>
		<path class="st2" d="M1054.06921,362.26337c-1.7395,0-3.24426-1.29871-3.45862-3.06717
			c-0.23157-1.91147,1.13013-3.64761,3.04333-3.87909c8.91553-1.07916,15.3053-3.50635,20.10181-7.63736
			c1.4502-1.25443,3.65271-1.09784,4.91565,0.36768c1.25623,1.45868,1.09277,3.65952-0.36768,4.91565
			c-5.81091,5.00418-13.59973,8.03903-23.81238,9.27478C1054.34839,362.25485,1054.20874,362.26337,1054.06921,362.26337z"/>
	</g>
	<g>
		<path class="st2" d="M1032.46606,395.82883c-1.66113,0-3.10803-1.18295-3.42114-2.8374
			c-0.55493-2.92419-0.83411-5.93521-0.83411-8.94794c0-16.5036,8.53442-31.74933,22.20569-40.45218
			c-13.67126-8.70285-22.20569-23.94858-22.20569-40.45218c0-3.01273,0.27917-6.02374,0.83411-8.94794
			c0.3302-1.73615,1.92676-2.92422,3.66968-2.82889c25.54858,1.80762,46.33472,22.43369,48.35339,47.97885
			c0.177,1.49615,0.20081,3.06549,0.20081,4.25015s-0.0238,2.754-0.21448,4.37952
			c-2.005,25.4158-22.79114,46.04187-48.33972,47.84949C1032.63293,395.82544,1032.54785,395.82883,1032.46606,395.82883z
			 M1035.42444,298.65921c-0.16003,1.48251-0.2417,2.98038-0.2417,4.47992c0,16.02191,9.40918,30.65488,23.97241,37.27945
			c1.24243,0.56509,2.04248,1.80594,2.04248,3.17273s-0.80005,2.60764-2.04248,3.17273
			c-14.56323,6.62457-23.97241,21.25754-23.97241,37.27945c0,1.49954,0.08167,2.99741,0.2417,4.47992
			c20.6499-2.97357,37.03088-20.17331,38.69214-41.23001c0.14978-1.30893,0.18042-2.48849,0.18042-3.70209
			s-0.03064-2.39316-0.16675-3.57272C1072.45532,318.83932,1056.07434,301.63278,1035.42444,298.65921z"/>
	</g>
</g>
<g>
	<g>
		<path class="st10" d="M176.32518,644.49066v-112.6604h-17.17693v136.91022v56.3302c0,8.789,7.12489,15.91394,15.91391,15.91394
			h0.00003c8.789,0,15.91389-7.12494,15.91389-15.91394v-64.41345L176.32518,644.49066z"/>
		<path class="st2" d="M175.06259,744.47052c-10.69771,0-19.40056-8.70459-19.40056-19.40057V531.83026
			c0-1.92682,1.56082-3.48596,3.4859-3.48596h17.17763c1.92508,0,3.4859,1.55914,3.4859,3.48596v111.31409l13.74788,15.16913
			c0.58043,0.64337,0.90211,1.47742,0.90211,2.3421v64.41437C194.46146,735.76593,185.75861,744.47052,175.06259,744.47052z
			 M162.63385,535.31616v189.75378c0,6.85266,5.57608,12.42877,12.42874,12.42877c6.85268,0,12.42706-5.57611,12.42706-12.42877
			v-63.0697l-13.74789-15.16913c-0.58041-0.64343-0.90211-1.47748-0.90211-2.3421V535.31616H162.63385z"/>
		<g>
			<path class="st2" d="M204.61621,535.31616h-28.29065c-1.92508,0-3.48592-1.55914-3.48592-3.4859
				c0-1.92682,1.56084-3.48596,3.48592-3.48596h28.29065c1.92508,0,3.4859,1.55914,3.4859,3.48596
				C208.10211,533.75702,206.54129,535.31616,204.61621,535.31616z"/>
			<path class="st2" d="M204.61621,554.0495h-28.29065c-1.92508,0-3.48592-1.55914-3.48592-3.4859
				c0-1.92682,1.56084-3.4859,3.48592-3.4859h28.29065c1.92508,0,3.4859,1.55908,3.4859,3.4859
				C208.10211,552.49036,206.54129,554.0495,204.61621,554.0495z"/>
			<path class="st2" d="M204.61621,572.78625h-28.29065c-1.92508,0-3.48592-1.55914-3.48592-3.48596
				c0-1.92676,1.56084-3.4859,3.48592-3.4859h28.29065c1.92508,0,3.4859,1.55914,3.4859,3.4859
				C208.10211,571.22711,206.54129,572.78625,204.61621,572.78625z"/>
			<path class="st2" d="M204.61621,591.51959h-28.29065c-1.92508,0-3.48592-1.55914-3.48592-3.4859
				c0-1.92682,1.56084-3.48596,3.48592-3.48596h28.29065c1.92508,0,3.4859,1.55914,3.4859,3.48596
				C208.10211,589.96045,206.54129,591.51959,204.61621,591.51959z"/>
			<path class="st2" d="M204.61621,610.25629h-28.29065c-1.92508,0-3.48592-1.55908-3.48592-3.4859
				c0-1.92676,1.56084-3.4859,3.48592-3.4859h28.29065c1.92508,0,3.4859,1.55914,3.4859,3.4859
				C208.10211,608.6972,206.54129,610.25629,204.61621,610.25629z"/>
			<path class="st2" d="M204.61621,628.98962h-28.29065c-1.92508,0-3.48592-1.55908-3.48592-3.4859
				c0-1.92676,1.56084-3.4859,3.48592-3.4859h28.29065c1.92508,0,3.4859,1.55914,3.4859,3.4859
				C208.10211,627.43054,206.54129,628.98962,204.61621,628.98962z"/>
			<path class="st2" d="M204.61621,647.72302h-28.29065c-1.92508,0-3.48592-1.55914-3.48592-3.48596
				c0-1.92676,1.56084-3.4859,3.48592-3.4859h28.29065c1.92508,0,3.4859,1.55914,3.4859,3.4859
				C208.10211,646.16388,206.54129,647.72302,204.61621,647.72302z"/>
		</g>
	</g>
	<g>
		<g>
			<path class="st2" d="M274.76837,672.49878c-0.6315,0-1.26978-0.17017-1.84338-0.53107
				c-1.63232-1.01782-2.12933-3.16931-1.10977-4.80328l73.48828-117.6051c1.02127-1.6272,3.17441-2.13104,4.80331-1.10638
				c1.63232,1.01788,2.12933,3.16931,1.10977,4.80334l-73.48825,117.6051
				C277.06619,671.91669,275.93091,672.49878,274.76837,672.49878z"/>
			<polygon class="st7" points="312.88678,639.33636 298.8118,630.54132 352.94995,543.90216 359.98892,563.95715 			"/>
			<path class="st2" d="M312.88354,642.82092c-0.63147,0-1.26978-0.17017-1.84338-0.53107l-14.07468-8.79303
				c-0.78467-0.48682-1.34125-1.26978-1.54892-2.17188c-0.20935-0.89874-0.05106-1.84509,0.43915-2.63147l54.13708-86.64044
				c0.71146-1.13361,2.01016-1.74976,3.34122-1.617c1.33105,0.14984,2.46124,1.0451,2.90378,2.31146l7.03992,20.0542
				c0.35062,0.99744,0.22977,2.10382-0.33194,3.0025l-47.10226,75.37933
				C315.1814,642.23883,314.04608,642.82092,312.88354,642.82092z M303.6156,629.43219l8.16159,5.09949l44.36868-71.00146
				l-4.08334-11.6322L303.6156,629.43219z"/>
			<path class="st2" d="M245.4973,732.39917c-0.14638,0-0.29446-0.01019-0.44424-0.02722
				c-2.94293-0.37787-5.6646-1.33783-8.08839-2.8493c-9.3922-5.87225-12.25854-18.284-6.39139-27.67621l18.3725-29.4021
				c2.8425-4.54803,7.28668-7.71735,12.51385-8.92584c5.22885-1.19824,10.6109-0.3064,15.15894,2.53955
				c2.4306,1.51825,4.48672,3.54718,6.11224,6.02203c0.74551,1.14044,0.76083,2.6076,0.04083,3.76166l-34.31778,54.92004
				C247.81216,731.78644,246.68878,732.39917,245.4973,732.39917z M266.00082,669.9729c-0.98892,0-1.98465,0.1123-2.97357,0.34039
				c-3.41101,0.78638-6.31308,2.85614-8.16838,5.828l-18.3725,29.4021c-3.82973,6.12756-1.95912,14.23303,4.17186,18.06616
				c0.9753,0.6059,2.03401,1.0791,3.16251,1.40588l31.75781-50.82135c-0.78976-0.86804-1.67657-1.61359-2.65527-2.22638
				C270.81439,670.65033,268.42804,669.9729,266.00082,669.9729z"/>
			<path class="st2" d="M229.89754,707.06848c-5.57439,0-11.83302-2.74036-15.16234-6.37268
				c-1.3004-1.41949-1.20338-3.62543,0.21617-4.92584c1.42125-1.30042,3.62547-1.20172,4.92418,0.21448
				c2.64848,2.89355,9.53008,5.24243,12.67897,3.60162c1.71231-0.89191,3.81271-0.22809,4.70291,1.48083
				c0.8902,1.70551,0.22807,3.81268-1.47913,4.70117C234.05237,706.66681,232.02345,707.06848,229.89754,707.06848z"/>
		</g>
		<g>
			<path class="st2" d="M302.52625,672.49878c-1.16254,0-2.29782-0.57867-2.95996-1.63739l-73.48827-117.6051
				c-1.01956-1.63403-0.52255-3.78546,1.10977-4.80334c1.63062-1.02466,3.78377-0.52423,4.80333,1.10638l73.48828,117.6051
				c1.01956,1.63397,0.52255,3.78546-1.10977,4.80328C303.79602,672.32861,303.15775,672.49878,302.52625,672.49878z"/>
			<polygon class="st7" points="264.40771,639.33636 278.48267,630.54132 224.34453,543.90216 217.30556,563.95715 			"/>
			<path class="st2" d="M264.41107,642.82092c-1.16254,0-2.29785-0.58209-2.95996-1.63739l-47.10228-75.37933
				c-0.56169-0.89868-0.68254-2.00507-0.33191-3.0025l7.03989-20.0542c0.44255-1.26636,1.57275-2.16162,2.90379-2.31146
				c1.33444-0.14636,2.62975,0.4834,3.34123,1.617l54.13707,86.64044c0.4902,0.78638,0.6485,1.73273,0.43915,2.63147
				c-0.20767,0.9021-0.76425,1.68506-1.54892,2.17188l-14.07468,8.79303
				C265.68085,642.65076,265.04254,642.82092,264.41107,642.82092z M221.14873,563.53021l44.3687,71.00146l8.16159-5.09949
				l-48.44695-77.53418L221.14873,563.53021z"/>
			<path class="st2" d="M331.7973,732.39917c-1.19147,0-2.31485-0.60931-2.95654-1.63739l-34.31781-54.92004
				c-0.71997-1.15405-0.70465-2.62122,0.04086-3.76166c1.62552-2.47485,3.68164-4.50378,6.11057-6.02203
				c4.54971-2.84595,9.93515-3.74121,15.16061-2.53955c5.22714,1.2085,9.67136,4.37781,12.51385,8.92584l18.3725,29.4021
				c5.86716,9.39221,3.00079,21.80396-6.388,27.67279c-2.42719,1.51489-5.14886,2.47485-8.0918,2.85272
				C332.09177,732.38898,331.9437,732.39917,331.7973,732.39917z M301.71606,674.19409l31.75781,50.82135
				c1.12851-0.32678,2.1889-0.79999,3.16592-1.4093c6.12756-3.82971,7.99817-11.93518,4.16843-18.06274l-18.3725-29.4021
				c-1.85529-2.97186-4.75735-5.04163-8.16837-5.828c-3.41272-0.78979-6.92926-0.19745-9.89774,1.65442
				C303.39261,672.58051,302.50412,673.32605,301.71606,674.19409z"/>
		</g>
		<g>
			<circle class="st1" cx="288.64722" cy="646.80798" r="8.8326"/>
			<path class="st2" d="M288.64731,659.12708c-6.79138,0-12.31812-5.52502-12.31812-12.31982
				c0-6.79138,5.52673-12.31641,12.31812-12.31641s12.31812,5.52502,12.31812,12.31641
				C300.96542,653.60205,295.43869,659.12708,288.64731,659.12708z M288.64731,641.46265c-2.94806,0-5.34631,2.39655-5.34631,5.3446
				s2.39825,5.34802,5.34631,5.34802c2.94803,0,5.34631-2.39996,5.34631-5.34802S291.59534,641.46265,288.64731,641.46265z"/>
		</g>
	</g>
</g>
<g>
	<g>
		<g>
			<g>
				<path class="st3" d="M602.27576,536.04254c-16.6618,0.88672-32.00739,11.44952-38.16132,28.09399
					c-6.15387,16.64441-1.37061,34.64948,10.70691,46.1618c16.6618-0.88666,32.00708-11.44958,38.16101-28.09406
					S614.35327,547.55493,602.27576,536.04254z"/>
				<path class="st4" d="M579.27087,598.26434c-6.48962-8.5473-8.28766-19.90759-4.48749-30.18347
					c3.79883-10.27588,12.55432-17.73322,23.04266-20.00336c6.48962,8.5473,8.28625,19.90753,4.48749,30.18207
					C598.51471,588.53687,589.76056,595.99561,579.27087,598.26434z"/>
				<path class="st2" d="M574.82184,613.78308c-0.89362,0-1.75488-0.34381-2.40509-0.96338
					c-13.48407-12.84747-18.02698-32.43188-11.57263-49.89203c6.45612-17.45679,22.64478-29.37494,41.24536-30.36896
					c0.96002-0.05103,1.89618,0.29956,2.59064,0.96002c13.48401,12.85083,18.02527,32.43866,11.57257,49.89545
					c-6.45605,17.45673-22.64648,29.37488-41.24536,30.36548C574.94434,613.78308,574.88306,613.78308,574.82184,613.78308z
					 M600.94739,539.63269c-15.17938,1.38892-28.25153,11.34619-33.56378,25.71191
					c-5.31396,14.37256-1.86377,30.43701,8.76587,41.36115c15.17932-1.38214,28.24976-11.33942,33.56372-25.70856
					C615.02545,566.62799,611.57361,550.56018,600.94739,539.63269z"/>
			</g>
			<g>
				<path class="st3" d="M499.00772,536.04254c16.66177,0.88672,32.00735,11.44952,38.16129,28.09399
					c6.15393,16.64441,1.37061,34.64948-10.70691,46.1618c-16.66174-0.88666-32.00708-11.44958-38.16098-28.09406
					C482.14719,565.55981,486.93024,547.55493,499.00772,536.04254z"/>
				<path class="st4" d="M522.01263,598.26434c6.48956-8.5473,8.2876-19.90759,4.48743-30.18347
					c-3.79877-10.27588-12.55432-17.73322-23.04263-20.00336c-6.48962,8.5473-8.28625,19.90753-4.48749,30.18207
					C502.76874,588.53687,511.52289,595.99561,522.01263,598.26434z"/>
				<path class="st2" d="M526.46167,613.78308c-0.06128,0-0.12256,0-0.18555-0.00342
					c-18.59885-0.9906-34.78925-12.90875-41.24533-30.36548c-6.45267-17.45679-1.91147-37.04462,11.5726-49.89545
					c0.69446-0.66046,1.64764-1.01105,2.59061-0.96002c18.60056,0.99402,34.78928,12.91217,41.24533,30.36896
					c6.45441,17.46014,1.91144,37.04456-11.57257,49.89203C528.21655,613.43927,527.35529,613.78308,526.46167,613.78308z
					 M500.33609,539.63269c-10.62622,10.92749-14.07809,26.9953-8.76581,41.3645
					c5.31396,14.36914,18.3844,24.32642,33.56375,25.70856c10.62964-10.92413,14.07977-26.98859,8.76581-41.36115
					C528.58759,550.97888,515.51544,541.02161,500.33609,539.63269z"/>
			</g>
		</g>
		<path class="st3" d="M559.42389,549.42108h-17.56427c-28.79218,0-52.13281,23.34064-52.13281,52.13281v9.94965
			c0,28.79242,23.34064,52.13306,52.13281,52.13306h17.56427c28.79218,0,52.13281-23.34064,52.13281-52.13306v-9.94965
			C611.5567,572.76172,588.21606,549.42108,559.42389,549.42108z"/>
		<path class="st2" d="M559.42456,667.12354h-17.56567c-30.66849,0-55.61789-24.95282-55.61789-55.62128v-9.94708
			c0-30.66852,24.9494-55.62134,55.61789-55.62134h17.56567c30.66852,0,55.61792,24.95282,55.61792,55.62134v9.94708
			C615.04248,642.17072,590.09308,667.12354,559.42456,667.12354z M541.85889,552.90564
			c-26.82343,0-48.64609,21.8244-48.64609,48.64954v9.94708c0,26.82513,21.82266,48.64948,48.64609,48.64948h17.56567
			c26.82349,0,48.64612-21.82434,48.64612-48.64948v-9.94708c0-26.82513-21.82263-48.64954-48.64612-48.64954H541.85889z"/>
		<g>
			<path class="st2" d="M559.87225,642.71198c-7.0127,0-12.71643-5.70544-12.71643-12.71808v-6.41693
				c0-1.92676,1.56085-3.4859,3.4859-3.4859c1.92511,0,3.4859,1.55914,3.4859,3.4859v6.41693
				c0,3.16931,2.57703,5.74628,5.74463,5.74628c3.16931,0,5.74628-2.57697,5.74628-5.74628c0-1.92676,1.56085-3.4859,3.4859-3.4859
				c1.92511,0,3.4859,1.55914,3.4859,3.4859C572.59033,637.00653,566.88489,642.71198,559.87225,642.71198z"/>
			<path class="st2" d="M541.41125,642.71198c-7.0127,0-12.71814-5.70544-12.71814-12.71808c0-1.92676,1.56085-3.4859,3.4859-3.4859
				c1.92511,0,3.4859,1.55914,3.4859,3.4859c0,3.16931,2.57703,5.74628,5.74634,5.74628c3.1676,0,5.74457-2.57697,5.74457-5.74628
				v-6.41693c0-1.92676,1.56085-3.4859,3.4859-3.4859c1.92511,0,3.4859,1.55914,3.4859,3.4859v6.41693
				C554.12762,637.00653,548.42389,642.71198,541.41125,642.71198z"/>
		</g>
		<g>
			<path class="st5" d="M550.64172,611.32227c-6.53186,0-11.82697,0.82813-11.82697,5.65417
				c0,4.82599,5.2951,8.73822,11.82697,8.73822c6.53192,0,11.82697-3.91223,11.82697-8.73822
				C562.46869,612.15039,557.17365,611.32227,550.64172,611.32227z"/>
			<path class="st2" d="M550.64172,629.20068c-8.58539,0-15.31207-5.36841-15.31207-12.22449
				c0-9.14026,11.12494-9.14026,15.31207-9.14026c4.18719,0,15.31213,0,15.31213,9.14026
				C565.95386,623.83228,559.22717,629.20068,550.64172,629.20068z M550.64172,614.80774
				c-8.34027,0-8.34027,1.57617-8.34027,2.16846c0,2.79828,3.89783,5.25269,8.34027,5.25269
				c4.4425,0,8.34033-2.45441,8.34033-5.25269C558.98206,616.38391,558.98206,614.80774,550.64172,614.80774z"/>
		</g>
		<g>
			<g>
				<circle class="st2" cx="579.95245" cy="595.08929" r="8.59597"/>
				<path class="st2" d="M594.45728,584.42181c-0.60767,0-1.22382-0.16003-1.78381-0.49365
					c-7.58624-4.52759-14.83893-4.53436-22.1767-0.0238c-1.64081,1.01105-3.78546,0.49701-4.7948-1.14038
					c-1.00934-1.64087-0.49872-3.78888,1.14209-4.79657c9.62537-5.91992,19.5163-5.9267,29.40381-0.0238
					c1.65277,0.98718,2.19232,3.12848,1.20508,4.77948C596.80109,583.81586,595.64362,584.42181,594.45728,584.42181z"/>
			</g>
			<g>
				<circle class="st2" cx="521.33099" cy="595.08929" r="8.59597"/>
				<path class="st2" d="M506.8262,584.42181c-1.18634,0-2.34378-0.60596-2.9957-1.69873
					c-0.98721-1.651-0.44763-3.7923,1.20511-4.77948c9.88412-5.90631,19.77841-5.89948,29.40384,0.0238
					c1.64081,1.00769,2.15143,3.1557,1.14209,4.79657c-1.01105,1.63739-3.16083,2.15143-4.7948,1.14038
					c-7.33777-4.51398-14.59045-4.50378-22.17673,0.0238C508.05002,584.26178,507.43387,584.42181,506.8262,584.42181z"/>
			</g>
		</g>
		<g>
			<path class="st6" d="M594.24084,606.14966h-8.17145c-2.29132,0-4.14874,1.85742-4.14874,4.14868s1.85742,4.14868,4.14874,4.14868
				h8.17145c2.29126,0,4.14868-1.85742,4.14868-4.14868S596.5321,606.14966,594.24084,606.14966z"/>
			<path class="st6" d="M515.21411,606.14966h-8.17145c-2.29126,0-4.14868,1.85742-4.14868,4.14868s1.85742,4.14868,4.14868,4.14868
				h8.17145c2.29126,0,4.14868-1.85742,4.14868-4.14868S517.50537,606.14966,515.21411,606.14966z"/>
		</g>
		<g>
			<g>
				<path class="st2" d="M622.63727,616.55066c-0.52423,0-1.0553-0.11914-1.55743-0.36761
					c-9.61517-4.81696-20.29926-5.92334-31.76123-3.28845c-1.8689,0.4425-3.74463-0.73871-4.17694-2.61786
					c-0.43066-1.87573,0.74042-3.74463,2.6178-4.17694c13.07727-3.00934,25.33752-1.70892,36.44202,3.84674
					c1.72083,0.86127,2.4187,2.95825,1.55573,4.67737C625.14618,615.84601,623.91553,616.55066,622.63727,616.55066z"/>
				<path class="st2" d="M616.08417,637.34357c-0.74548,0-1.49615-0.23828-2.13104-0.72852
					c-7.78027-6.0152-17.09418-10.09686-27.68298-12.12915c-1.89105-0.36426-3.13013-2.19232-2.76593-4.08167
					c0.36426-1.88934,2.19745-3.10461,4.07996-2.76758c11.67303,2.24335,21.97925,6.77094,30.63446,13.46362
					c1.52167,1.17786,1.80249,3.36676,0.62463,4.88843C618.15735,636.8772,617.12585,637.34357,616.08417,637.34357z"/>
				<path class="st2" d="M599.91589,654.04803c-1.00763,0-2.00507-0.43579-2.6944-1.27319
					c-6.09528-7.41779-12.26196-13.64404-18.32654-18.50867c-1.50299-1.20508-1.74298-3.3974-0.53961-4.90204
					c1.2085-1.49786,3.39911-1.73615,4.90039-0.5379c6.44073,5.16418,12.95129,11.73431,19.3512,19.52313
					c1.22211,1.48761,1.00763,3.68335-0.47998,4.90546C601.47845,653.78931,600.6955,654.04803,599.91589,654.04803z"/>
			</g>
			<g>
				<path class="st2" d="M478.64621,616.55066c-1.27829,0-2.50891-0.70465-3.11996-1.92676
					c-0.86295-1.71912-0.1651-3.8161,1.55573-4.67737c11.10281-5.55566,23.36478-6.85266,36.44202-3.84674
					c1.87744,0.43231,3.04846,2.30121,2.61786,4.17694c-0.43066,1.87915-2.29956,3.05701-4.17697,2.61786
					c-11.45856-2.63489-22.14438-1.5285-31.76123,3.28845C479.70322,616.43152,479.17044,616.55066,478.64621,616.55066z"/>
				<path class="st2" d="M485.19931,637.34357c-1.04169,0-2.07318-0.46637-2.75912-1.35486
					c-1.17786-1.52167-0.897-3.71057,0.62466-4.88843c8.65521-6.69269,18.96143-11.22028,30.63443-13.46362
					c1.88599-0.33704,3.71912,0.87823,4.07996,2.76758c0.36426,1.88934-0.87488,3.71741-2.76593,4.08167
					c-10.58875,2.03229-19.90265,6.11395-27.68298,12.12915C486.69543,637.10529,485.94482,637.34357,485.19931,637.34357z"/>
				<path class="st2" d="M501.36758,654.04803c-0.77957,0-1.56253-0.25873-2.21103-0.79321
					c-1.48764-1.22211-1.70212-3.41785-0.48001-4.90546c6.3999-7.78882,12.91046-14.35895,19.35123-19.52313
					c1.50122-1.20166,3.69354-0.96338,4.90033,0.5379c1.20337,1.50464,0.96338,3.69696-0.53955,4.90204
					c-6.06458,4.86462-12.23132,11.09088-18.32654,18.50867C503.37436,653.61224,502.3735,654.04803,501.36758,654.04803z"/>
			</g>
		</g>
	</g>
	<rect x="456.06531" y="641.05109" class="st16" width="189.15289" height="95.72118"/>
	<path class="st2" d="M645.21735,740.25952H456.0661c-1.92508,0-3.4859-1.55914-3.4859-3.4859v-95.72284
		c0-1.92682,1.56082-3.48596,3.4859-3.48596h189.15125c1.92511,0,3.4859,1.55914,3.4859,3.48596v95.72284
		C648.70325,738.70038,647.14246,740.25952,645.21735,740.25952z M459.55203,733.28766h182.17941v-88.75098H459.55203V733.28766z"/>
	<polygon class="st3" points="591.04663,693.31165 591.04663,703.83527 591.04663,719.11621 628.05603,719.11621 
		628.05603,693.31165 	"/>
	<path class="st2" d="M591.04626,704.77747c-1.92511,0-3.4859-1.55914-3.4859-3.4859v-7.97943
		c0-1.92682,1.56079-3.4859,3.4859-3.4859h16.46783c1.92505,0,3.4859,1.55908,3.4859,3.4859c0,1.92676-1.56085,3.4859-3.4859,3.4859
		h-12.98193v4.49353C594.53217,703.21832,592.97131,704.77747,591.04626,704.77747z"/>
	<path class="st2" d="M628.05676,722.60187h-37.0105c-1.92511,0-3.4859-1.55908-3.4859-3.4859
		c0-1.92676,1.56079-3.4859,3.4859-3.4859h33.5246v-18.83203h-2.62805c-1.92505,0-3.4859-1.55914-3.4859-3.4859
		c0-1.92682,1.56085-3.4859,3.4859-3.4859h6.11395c1.92511,0,3.4859,1.55908,3.4859,3.4859v25.80383
		C631.54266,721.04279,629.98187,722.60187,628.05676,722.60187z"/>
	<path class="st2" d="M615.83228,709.69995h-12.56152c-1.92505,0-3.4859-1.55914-3.4859-3.4859s1.56085-3.4859,3.4859-3.4859
		h12.56152c1.92505,0,3.4859,1.55914,3.4859,3.4859S617.75732,709.69995,615.83228,709.69995z"/>
	<g>
		<g>
			<path class="st3" d="M591.82959,641.02057v2.41614c0,4.44397,2.84137,8.57855,7.14111,9.70172
				c3.46729,0.9057,6.67084-0.11115,8.95294-2.14014c1.71069,1.52094,3.9389,2.47314,6.40814,2.47314
				c2.46918,0,4.69763-0.95221,6.40833-2.47314c2.28192,2.02887,5.48468,3.04565,8.95197,2.14032
				c4.29993-1.12274,7.14185-5.25708,7.14185-9.70117v-2.41687c0-12.42755-10.07458-22.50214-22.50214-22.50214h-0.00006
				C601.90417,618.51843,591.82959,628.59302,591.82959,641.02057z"/>
			<path class="st2" d="M601.52777,656.95862c-1.13696,0-2.28931-0.14642-3.43823-0.44598
				c-5.73779-1.50122-9.74622-6.87646-9.74622-13.07556v-2.41693c0-14.32831,11.65771-25.98773,25.98767-25.98773
				c14.33002,0,25.98944,11.65942,25.98944,25.98773v2.41693c0,6.1991-4.00848,11.57434-9.74628,13.07556
				c-3.42291,0.89191-6.88501,0.43237-9.83984-1.24933c-3.90631,2.21271-8.8952,2.21613-12.80493,0
				C605.96521,656.37988,603.77795,656.95862,601.52777,656.95862z M614.33099,622.00421
				c-10.48492,0-19.01587,8.53094-19.01587,19.01593v2.41693c0,2.98212,1.90808,5.64081,4.53778,6.32843
				c2.83063,0.74896,4.82208-0.54468,5.75482-1.37189c1.32257-1.17786,3.31403-1.17444,4.63312,0
				c0.81702,0.7251,2.19061,1.5932,4.09015,1.5932c1.90125,0,3.27484-0.8681,4.09186-1.5932
				c1.31744-1.17786,3.3089-1.18127,4.63312,0c0.9328,0.82721,2.92761,2.12085,5.75482,1.37189
				c2.62976-0.68762,4.53784-3.34631,4.53784-6.32843v-2.41693C633.34863,630.53516,624.81769,622.00421,614.33099,622.00421z"/>
		</g>
		<g>
			<path class="st3" d="M464.44955,641.02057v2.41614c0,4.44397,2.8414,8.57855,7.14114,9.70172
				c3.46725,0.9057,6.67081-0.11115,8.95294-2.14014c1.71069,1.52094,3.9389,2.47314,6.40808,2.47314
				s4.69763-0.95221,6.40833-2.47314c2.28195,2.02887,5.48474,3.04565,8.952,2.14032
				c4.29993-1.12274,7.14185-5.25708,7.14185-9.70117v-2.41687c0-12.42755-10.07455-22.50214-22.50214-22.50214h-0.00006
				C474.52411,618.51843,464.44955,628.59302,464.44955,641.02057z"/>
			<path class="st2" d="M499.75568,656.95862c-2.25018,0-4.43738-0.57874-6.40161-1.69531
				c-3.90802,2.21613-8.89688,2.21271-12.8049,0c-2.95657,1.6817-6.41522,2.14124-9.83987,1.24933
				c-5.73776-1.50122-9.74622-6.87646-9.74622-13.07556v-2.41693c0-14.32831,11.65939-25.98773,25.98938-25.98773
				c14.33002,0,25.98773,11.65942,25.98773,25.98773v2.41693c0,6.1991-4.00845,11.57434-9.74625,13.07556
				C502.04501,656.81219,500.8927,656.95862,499.75568,656.95862z M493.36087,647.51196c0.82895,0,1.65616,0.29272,2.31656,0.88165
				c0.93277,0.83063,2.91742,2.12085,5.75311,1.37189c2.62976-0.68762,4.53781-3.34631,4.53781-6.32843v-2.41693
				c0-10.48499-8.53094-19.01593-19.0159-19.01593c-10.48663,0-19.01758,8.53094-19.01758,19.01593v2.41693
				c0,2.98212,1.90805,5.64081,4.53781,6.32843c2.8306,0.74896,4.82205-0.54468,5.75479-1.37189
				c1.32254-1.17786,3.314-1.17444,4.63315,0c0.81699,0.7251,2.19058,1.5932,4.09183,1.5932
				c1.89957,0,3.27487-0.8681,4.09357-1.5932C491.70645,647.80469,492.53366,647.51196,493.36087,647.51196z"/>
		</g>
	</g>
	<path class="st2" d="M645.22076,644.53668c-0.22296,0-0.45105-0.02045-0.67914-0.0647
		c-1.88934-0.37445-3.11652-2.20935-2.74377-4.09528l10.00153-50.62054c0.37451-1.88593,2.20764-3.10803,4.09528-2.74377
		c1.88934,0.37445,3.11658,2.20935,2.74377,4.09528l-10.00153,50.61713
		C648.30841,643.38605,646.85138,644.53668,645.22076,644.53668z"/>
	<path class="st2" d="M456.06271,644.53668c-1.63062,0-3.08762-1.15063-3.41614-2.81189l-10.00153-50.61713
		c-0.37277-1.88593,0.85443-3.72083,2.74377-4.09528c1.89102-0.36426,3.72079,0.85785,4.09525,2.74377l10.00156,50.62054
		c0.37277,1.88593-0.85443,3.72083-2.74377,4.09528C456.51376,644.51624,456.28568,644.53668,456.06271,644.53668z"/>
</g>
<g>
	<g>
		<path class="st17" d="M898.97583,685.54797h-13.58435c12.90204,0,23.3609-10.45892,23.3609-23.3609
			c0-12.90179-10.45886-23.36096-23.3609-23.36096H868.5816c9.00665-1.87689,15.77551-9.85333,15.77551-19.41705
			c0-9.4165-6.57623-17.26117-15.37573-19.29285c2.36041-17.33405-30.42401-13.70905-31.6134-28.01025
			c-15.57642,9.89508-14.59827,20.33789-10.79492,27.46216h-5.8576c-10.9577,0-19.84088,8.88324-19.84088,19.84094
			c0,9.56372,6.7691,17.54016,15.77545,19.41705h-16.80988c-12.90173,0-23.3609,10.45917-23.3609,23.36096
			c0,12.90198,10.45917,23.3609,23.3609,23.3609h-11.90027c-12.90179,0-23.36096,10.45917-23.36096,23.3609
			c0,12.90204,10.45917,23.36096,23.36096,23.36096h111.03595c12.90204,0,23.3609-10.45892,23.3609-23.36096
			C922.33673,696.00714,911.87787,685.54797,898.97583,685.54797z"/>
		<g>
			<path class="st18" d="M898.97583,685.54797h-16.98975c12.90198,0,23.3609,10.45917,23.3609,23.3609
				c0,12.90204-10.45892,23.36096-23.3609,23.36096h16.98975c12.90204,0,23.3609-10.45892,23.3609-23.36096
				C922.33673,696.00714,911.87787,685.54797,898.97583,685.54797z"/>
			<path class="st18" d="M885.39148,638.82611h-20.2005c12.90204,0,23.36096,10.45917,23.36096,23.36096
				c0,12.90198-10.45892,23.3609-23.36096,23.3609h20.2005c12.90204,0,23.3609-10.45892,23.3609-23.3609
				C908.75238,649.28528,898.29352,638.82611,885.39148,638.82611z"/>
			<path class="st18" d="M864.51617,599.56812h-15.34717c10.95795,0,19.84088,8.88324,19.84088,19.84094
				c0,10.95795-8.88293,19.84094-19.84088,19.84094h15.34717c10.95795,0,19.84094-8.883,19.84094-19.84094
				C884.35712,608.45135,875.47412,599.56812,864.51617,599.56812z"/>
		</g>
		<path class="st2" d="M885.39087,689.03302h-28.61578c-1.92676,0-3.4859-1.55914-3.4859-3.4859s1.55914-3.4859,3.4859-3.4859
			h28.61578c1.92676,0,3.4859,1.55914,3.4859,3.4859S887.31763,689.03302,885.39087,689.03302z"/>
		<path class="st2" d="M868.58087,642.31372h-25.12305c-1.92676,0-3.4859-1.55914-3.4859-3.4859
			c0-1.92682,1.55914-3.4859,3.4859-3.4859h25.12305c1.92682,0,3.4859,1.55908,3.4859,3.4859
			C872.06677,640.75458,870.50769,642.31372,868.58087,642.31372z"/>
		<path class="st19" d="M824.38751,656.82587h-25.8822c-1.92676,0-3.4859-1.55914-3.4859-3.48596
			c0-1.92676,1.55914-3.4859,3.4859-3.4859h25.8822c1.92676,0,3.4859,1.55914,3.4859,3.4859
			C827.87341,655.26672,826.31427,656.82587,824.38751,656.82587z"/>
		<path class="st19" d="M843.45782,656.82587h-6.09009c-1.92682,0-3.4859-1.55914-3.4859-3.48596
			c0-1.92676,1.55908-3.4859,3.4859-3.4859h6.09009c1.92682,0,3.4859,1.55914,3.4859,3.4859
			C846.94373,655.26672,845.38464,656.82587,843.45782,656.82587z"/>
		<path class="st2" d="M898.97705,735.75574H787.93866c-14.80145,0-26.84558-12.04407-26.84558-26.84558
			c0-12.92572,9.17773-23.74432,21.35803-26.28387c-5.78375-4.92926-9.45691-12.2619-9.45691-20.43884
			c0-14.80145,12.04407-26.84552,26.84558-26.84552h3.87054c-3.94208-4.21783-6.32159-9.862-6.32159-15.9317
			c0-12.8645,10.46454-23.32904,23.32562-23.32904h0.7251c-1.97107-7.2373-0.84082-17.45331,14.05939-26.91705
			c1.03143-0.65698,2.33185-0.7251,3.4212-0.18042c1.09277,0.54132,1.82123,1.617,1.91998,2.83234
			c0.34723,4.14972,5.46375,6.36584,13.23553,9.26965c8.11224,3.03656,18.03546,6.74713,18.50525,16.46613
			c9.11646,3.3327,15.26105,11.94537,15.26105,21.8584c0,6.0697-2.37952,11.71387-6.32159,15.9317h3.87061
			c14.80487,0,26.84894,12.04407,26.84894,26.84552c0,8.03735-3.5506,15.26105-9.16754,20.18695
			c12.86792,1.97784,22.75031,13.12323,22.75031,26.53577C925.82257,723.71167,913.7785,735.75574,898.97705,735.75574z
			 M787.93866,689.03302c-10.95813,0-19.87372,8.91559-19.87372,19.87714c0,10.95813,8.91559,19.87378,19.87372,19.87378h111.03839
			c10.95813,0,19.87372-8.91565,19.87372-19.87378c0-10.96155-8.91559-19.87714-19.87372-19.87714h-13.58618
			c-1.92682,0-3.4859-1.55914-3.4859-3.4859s1.55908-3.4859,3.4859-3.4859c10.96155,0,19.87714-8.91565,19.87714-19.87378
			s-8.91559-19.87372-19.87714-19.87372h-16.81c-1.78717,0-3.28503-1.3515-3.46887-3.12848
			c-0.18042-1.77698,1.00763-3.40417,2.75739-3.76843c7.53351-1.57275,13.00067-8.30286,13.00067-16.00659
			c0-7.63904-5.21185-14.17511-12.67047-15.89764c-1.75653-0.40509-2.914-2.08337-2.6723-3.86719
			c0.79999-5.85864-3.84674-8.2688-13.89594-12.02704c-6.16162-2.30463-12.95642-4.8476-16.06445-9.97772
			c-7.81604,6.18884-9.8075,13.00067-5.91992,20.28564c0.57874,1.07916,0.54468,2.38293-0.08508,3.43488
			c-0.62976,1.04846-1.76337,1.69189-2.98889,1.69189h-5.85864c-9.01776,0-16.35382,7.33942-16.35382,16.35718
			c0,7.70374,5.46716,14.43384,13.00067,16.00659c1.74976,0.36426,2.93781,1.99146,2.75739,3.76843
			c-0.18378,1.77698-1.68164,3.12848-3.46887,3.12848h-16.80994c-10.95813,0-19.87378,8.91559-19.87378,19.87372
			s8.91565,19.87378,19.87378,19.87378c1.92676,0,3.4859,1.55914,3.4859,3.4859s-1.55914,3.4859-3.4859,3.4859H787.93866z"/>
		<path class="st2" d="M868.9826,603.60107h-19.8125c-1.92676,0-3.4859-1.55908-3.4859-3.4859
			c0-1.92676,1.55914-3.4859,3.4859-3.4859h19.8125c1.92676,0,3.4859,1.55914,3.4859,3.4859
			C872.46851,602.04199,870.90936,603.60107,868.9826,603.60107z"/>
	</g>
	<path class="st2" d="M897.30219,596.61224c-1.92682,0-3.4859-1.55908-3.4859-3.4859c0-3.07739-1.18127-4.43225-2.97192-6.47821
		c-2.09015-2.39313-4.6944-5.37524-4.6944-11.07043c0-5.68848,2.60425-8.6637,4.6944-11.05347
		c1.79065-2.04596,2.97192-3.39398,2.97192-6.4646c0-3.0672-1.18127-4.41522-2.96851-6.45776
		c-2.09357-2.39319-4.69781-5.36505-4.69781-11.05688c0-1.92676,1.55914-3.4859,3.4859-3.4859
		c1.92682,0,3.48596,1.55914,3.48596,3.4859c0,3.07062,1.18121,4.4187,2.97186,6.4646
		c2.09015,2.38977,4.6944,5.36163,4.6944,11.05005s-2.60425,8.6637-4.6944,11.05347c-1.79065,2.0459-2.97186,3.39398-2.97186,6.4646
		c0,3.08081,1.18121,4.43225,2.97186,6.48157c2.09357,2.39319,4.6944,5.37183,4.6944,11.06708
		C900.78809,595.05316,899.22894,596.61224,897.30219,596.61224z"/>
	<path class="st2" d="M795.59473,596.61224c-1.92676,0-3.4859-1.55908-3.4859-3.4859c0-3.07739-1.18127-4.43225-2.97186-6.47821
		c-2.09021-2.39313-4.6944-5.37524-4.6944-11.07043c0-5.68848,2.60419-8.6637,4.6944-11.05347
		c1.79059-2.04596,2.97186-3.39398,2.97186-6.4646c0-3.0672-1.18127-4.41522-2.96844-6.45776
		c-2.09363-2.39319-4.69781-5.36505-4.69781-11.05688c0-1.92676,1.55908-3.4859,3.4859-3.4859
		c1.92676,0,3.4859,1.55914,3.4859,3.4859c0,3.07062,1.18127,4.4187,2.97186,6.4646c2.09021,2.38977,4.6944,5.36163,4.6944,11.05005
		s-2.60419,8.6637-4.6944,11.05347c-1.79059,2.0459-2.97186,3.39398-2.97186,6.4646c0,3.08081,1.18127,4.43225,2.97186,6.48157
		c2.09357,2.39319,4.6944,5.37183,4.6944,11.06708C799.08063,595.05316,797.52148,596.61224,795.59473,596.61224z"/>
	<path class="st2" d="M846.44672,561.54553c-1.92676,0-3.4859-1.55914-3.4859-3.4859c0-3.0672-1.18121-4.41864-2.96844-6.46118
		c-2.09021-2.38977-4.6944-5.36505-4.6944-11.05347c0-1.92676,1.55914-3.4859,3.4859-3.4859s3.4859,1.55914,3.4859,3.4859
		c0,3.07062,1.18127,4.4187,2.96844,6.4646c2.09363,2.38977,4.6944,5.36163,4.6944,11.05005
		C849.93262,559.98639,848.37354,561.54553,846.44672,561.54553z"/>
</g>
<g>
	<g>
		<path class="st15" d="M1204.02527,657.31757v-66.40424h32.13916v66.40424c0,8.875-7.19458,16.06958-16.06958,16.06958l0,0
			C1211.21985,673.38715,1204.02527,666.19257,1204.02527,657.31757z"/>
		<path class="st20" d="M1220.0957,624.90802c-1.92676,0-3.48596-1.55914-3.48596-3.4859v-30.50848
			c0-1.92682,1.5592-3.4859,3.48596-3.4859s3.48584,1.55908,3.48584,3.4859v30.50848
			C1223.58154,623.34888,1222.02246,624.90802,1220.0957,624.90802z"/>
		<path class="st2" d="M1220.0957,676.87323c-10.78455,0-19.55713-8.77264-19.55713-19.55719v-66.4024
			c0-1.92682,1.55908-3.4859,3.48584-3.4859h32.13916c1.92676,0,3.48584,1.55908,3.48584,3.4859v66.4024
			C1239.64941,668.10059,1230.87683,676.87323,1220.0957,676.87323z M1207.51038,594.39954v62.9165
			c0,6.94116,5.64417,12.58533,12.58533,12.58533c6.93774,0,12.58191-5.64417,12.58191-12.58533v-62.9165H1207.51038z"/>
		<path class="st2" d="M1220.0957,712.45056c-1.92676,0-3.48596-1.55914-3.48596-3.4859v-35.57739
			c0-1.92676,1.5592-3.4859,3.48596-3.4859s3.48584,1.55914,3.48584,3.4859v35.57739
			C1223.58154,710.89142,1222.02246,712.45056,1220.0957,712.45056z"/>
		<rect x="1199.3385" y="563.85077" class="st7" width="41.51265" height="12.65254"/>
		<path class="st2" d="M1240.8512,579.9895h-41.51428c-1.92688,0-3.48596-1.55908-3.48596-3.4859v-12.65344
			c0-1.92676,1.55908-3.4859,3.48596-3.4859h41.51428c1.92676,0,3.48584,1.55914,3.48584,3.4859v12.65344
			C1244.33704,578.43042,1242.77795,579.9895,1240.8512,579.9895z M1202.82275,573.0177h34.54248v-5.68158h-34.54248V573.0177z"/>
		<path class="st1" d="M1204.02527,621.42377v35.89386c0,8.87494,7.19458,16.06952,16.06946,16.06952
			c8.875,0,16.06958-7.19458,16.06958-16.06952v-35.89386H1204.02527z"/>
		<path class="st21" d="M1213.62769,659.70581c-1.92676,0-3.48584-1.55914-3.48584-3.4859v-34.79437
			c0-1.92682,1.55908-3.48596,3.48584-3.48596s3.48596,1.55914,3.48596,3.48596v34.79437
			C1217.11365,658.14667,1215.55444,659.70581,1213.62769,659.70581z"/>
		<path class="st2" d="M1220.0957,676.87323c-10.78455,0-19.55713-8.77264-19.55713-19.55719v-35.89392
			c0-1.92682,1.55908-3.4859,3.48584-3.4859h32.13916c1.92676,0,3.48584,1.55908,3.48584,3.4859v35.89392
			C1239.64941,668.10059,1230.87683,676.87323,1220.0957,676.87323z M1207.51038,624.90802v32.40802
			c0,6.94116,5.64417,12.58533,12.58533,12.58533c6.93774,0,12.58191-5.64417,12.58191-12.58533v-32.40802H1207.51038z"/>
		<path class="st2" d="M1220.0957,594.39954c-1.92676,0-3.48596-1.55914-3.48596-3.4859V576.5036
			c0-1.92676,1.5592-3.4859,3.48596-3.4859s3.48584,1.55914,3.48584,3.4859v14.41003
			C1223.58154,592.84039,1222.02246,594.39954,1220.0957,594.39954z"/>
	</g>
	<g>
		<rect x="1031.69678" y="587.74524" class="st13" width="155.42252" height="121.21883"/>
		<path class="st2" d="M1187.11914,712.45056h-155.42236c-1.92676,0-3.48596-1.55914-3.48596-3.4859V587.74432
			c0-1.92682,1.5592-3.4859,3.48596-3.4859h155.42236c1.92676,0,3.48596,1.55908,3.48596,3.4859v121.22034
			C1190.6051,710.89142,1189.0459,712.45056,1187.11914,712.45056z M1035.18274,705.47876h148.45056V591.23022h-148.45056V705.47876
			z"/>
		<path class="st2" d="M1139.63049,591.23022h-60.44507c-1.92676,0-3.48584-1.55914-3.48584-3.4859v-19.71375
			c0-1.92682,1.55908-3.48596,3.48584-3.48596h60.44507c1.92676,0,3.48596,1.55914,3.48596,3.48596v19.71375
			C1143.11646,589.67108,1141.55725,591.23022,1139.63049,591.23022z M1082.67139,584.25842h53.47327v-12.74194h-53.47327V584.25842
			z"/>
		<g>
			<polygon class="st10" points="1129.5553,661.36316 1116.54675,661.36316 1116.54675,648.35486 1102.26929,648.35486 
				1102.26929,661.36316 1089.26074,661.36316 1089.26074,675.64069 1102.26929,675.64069 1102.26929,688.64917 
				1116.54675,688.64917 1116.54675,675.64069 1129.5553,675.64069 			"/>
			<path class="st2" d="M1116.54663,692.13428h-14.27722c-1.92688,0-3.48596-1.55914-3.48596-3.4859v-9.52161h-9.52161
				c-1.92676,0-3.48584-1.55908-3.48584-3.4859v-14.27722c0-1.92676,1.55908-3.4859,3.48584-3.4859h9.52161v-9.52155
				c0-1.92682,1.55908-3.48596,3.48596-3.48596h14.27722c1.92676,0,3.48584,1.55914,3.48584,3.48596v9.52155h9.52161
				c1.92676,0,3.48584,1.55914,3.48584,3.4859v14.27722c0,1.92682-1.55908,3.4859-3.48584,3.4859h-9.52161v9.52161
				C1120.03247,690.57513,1118.47339,692.13428,1116.54663,692.13428z M1105.75525,685.16241h7.30542v-9.52155
				c0-1.92676,1.55908-3.4859,3.48596-3.4859h9.52148v-7.30542h-9.52148c-1.92688,0-3.48596-1.55914-3.48596-3.4859v-9.52155
				h-7.30542v9.52155c0,1.92676-1.55908,3.4859-3.48584,3.4859h-9.52161v7.30542h9.52161c1.92676,0,3.48584,1.55914,3.48584,3.4859
				V685.16241z"/>
		</g>
		<path class="st14" d="M1075.20447,631.25299h68.4071c24.02869,0,43.50769-19.47906,43.50769-43.50769v-0.00006h-155.42249v0.00006
			C1031.69678,611.77393,1051.17578,631.25299,1075.20447,631.25299z"/>
		<path class="st2" d="M1143.60999,634.73938h-68.40405c-25.91284,0-46.99512-21.08228-46.99512-46.99506
			c0-1.92682,1.5592-3.4859,3.48596-3.4859h155.42236c1.92676,0,3.48596,1.55908,3.48596,3.4859
			C1190.6051,613.6571,1169.52283,634.73938,1143.60999,634.73938z M1035.33252,591.23022
			c1.77356,20.44226,18.97839,36.53729,39.87341,36.53729h68.40405c20.89502,0,38.09985-16.09503,39.87354-36.53729H1035.33252z"/>
		<path class="st13" d="M1117.7312,600.11517h-62.31055c-1.92676,0-3.48584-1.55914-3.48584-3.4859s1.55908-3.4859,3.48584-3.4859
			h62.31055c1.92688,0,3.48596,1.55914,3.48596,3.4859S1119.65808,600.11517,1117.7312,600.11517z"/>
	</g>
</g>
</svg>
